<svg xmlns="http://www.w3.org/2000/svg" width="21" height="21" fill="none" viewBox="0 0 21 21"><g clip-path="url(#a)"><path fill="#202020" d="M15.45 3.5h-3.3c-.607 0-1.1.522-1.1 1.167v3.5h4.4a.378.378 0 0 1 .318.165.428.428 0 0 1 .056.371l-.814 2.567a.554.554 0 0 1-.517.397H11.05v8.75c0 .322-.246.583-.55.583H7.75c-.304 0-.55-.261-.55-.583v-8.75H5.55c-.304 0-.55-.262-.55-.584V8.75c0-.322.246-.583.55-.583H7.2v-3.5C7.2 2.089 9.17 0 11.6 0h3.85c.304 0 .55.261.55.583v2.334c0 .322-.246.583-.55.583"/></g><defs><clipPath id="a"><path fill="#fff" d="M0 0h21v21H0z"/></clipPath></defs></svg>