<svg xmlns="http://www.w3.org/2000/svg" width="24" height="24" fill="none" viewBox="0 0 21 21"><g fill="#FFF" clip-path="url(#a)"><path d="M11.577 9.028a.934.934 0 0 1-.94-.926c0-.51.422-.926.94-.926.517 0 .94.415.94.926a.93.93 0 0 1-.94.926Zm-7.321-.545c.15.348.497.586.899.586a.97.97 0 0 0 .98-.967.97.97 0 0 0-.98-.967.975.975 0 0 0-.98.967c0 .136.033.266.081.381Zm11.788.504c-.552 0-.994-.429-.994-.953 0-.525.45-.954.994-.954.388 0 .729.218.892.532a.9.9 0 0 1 .102.422c0 .15-.04.3-.102.422a.994.994 0 0 1-.892.531Z"/><path fill-rule="evenodd" d="M17.431 0H3.561C1.6 0 0 1.62 0 3.593v8.696c0 1.98 1.606 3.593 3.562 3.593h4.897l1.673 2.919a.391.391 0 0 0 .682 0l1.673-2.92h4.951c1.963 0 3.562-1.619 3.562-3.592v-8.69C21 1.62 19.395 0 17.431 0Zm-5.854 6.168c-1.083 0-1.961.865-1.961 1.934 0 1.07.878 1.934 1.96 1.934 1.083 0 1.962-.865 1.962-1.934 0-1.07-.872-1.934-1.961-1.934Zm-7.328.443c.307-.28.702-.443 1.124-.443.98 0 1.764.872 1.764 1.94 0 1.07-.79 1.935-1.764 1.935-.43 0-.817-.17-1.124-.443v.348H3.16V5.01h1.09v1.6Zm12.687-.361v.306a1.785 1.785 0 0 0-1.096-.381c-1.001 0-1.812.837-1.812 1.866 0 1.028.81 1.865 1.812 1.865a1.76 1.76 0 0 0 1.096-.38v.517s-.109.51-.872.51v.96s.824.096 1.56-.64c0 0 .34-.36.415-.837V6.25h-1.103ZM7.26 5.902v-.987s.722-.095 1.362.66c0 0 .293.368.361.859v3.513H7.858V6.461c-.095-.49-.599-.559-.599-.559Z" clip-rule="evenodd"/></g><defs><clipPath id="a"><path fill="#fff" d="M0 0h21v21H0z"/></clipPath></defs></svg>