<svg xmlns="http://www.w3.org/2000/svg" width="21" height="21" fill="none" viewBox="0 0 21 21"><g fill="#202020" clip-path="url(#a)"><path d="M10.4 1.874c2.779 0 3.105.013 4.203.062 1.016.046 1.565.215 1.932.36.487.19.834.412 1.198.776.363.363.59.71.776 1.197.14.367.313.917.359 1.932.05 1.098.062 1.425.062 4.203 0 2.779-.013 3.105-.062 4.203-.046 1.016-.215 1.565-.36 1.932a3.24 3.24 0 0 1-.775 1.198c-.364.363-.71.59-1.198.776-.367.14-.916.313-1.932.359-1.098.05-1.424.062-4.203.062-2.779 0-3.105-.012-4.203-.062-1.016-.046-1.565-.215-1.932-.36a3.228 3.228 0 0 1-1.197-.775 3.179 3.179 0 0 1-.777-1.198c-.14-.367-.313-.916-.359-1.932-.05-1.098-.062-1.424-.062-4.203 0-2.778.013-3.105.062-4.203.046-1.015.215-1.565.36-1.932.19-.487.412-.834.776-1.197a3.17 3.17 0 0 1 1.197-.776c.367-.14.916-.314 1.932-.36 1.098-.053 1.429-.062 4.203-.062ZM10.4 0C7.576 0 7.221.012 6.11.062c-1.106.05-1.862.227-2.522.483a5.07 5.07 0 0 0-1.842 1.201A5.159 5.159 0 0 0 .545 3.588c-.256.66-.434 1.416-.483 2.526C.012 7.221 0 7.576 0 10.4s.012 3.179.062 4.29c.05 1.106.227 1.862.483 2.526a5.07 5.07 0 0 0 1.201 1.842 5.16 5.16 0 0 0 1.842 1.201c.66.256 1.416.434 2.526.483 1.111.05 1.462.062 4.29.062 2.828 0 3.18-.012 4.29-.062 1.106-.05 1.862-.227 2.527-.483a5.07 5.07 0 0 0 1.84-1.201 5.16 5.16 0 0 0 1.202-1.842c.256-.66.434-1.416.483-2.526.05-1.111.062-1.462.062-4.29 0-2.828-.012-3.179-.062-4.29-.05-1.106-.227-1.862-.483-2.526a5.069 5.069 0 0 0-1.201-1.842A5.159 5.159 0 0 0 17.22.541c-.66-.256-1.416-.434-2.526-.483C13.579.012 13.224 0 10.4 0Z"/><path d="M10.4 5.062a5.343 5.343 0 1 0 .002 10.686A5.343 5.343 0 0 0 10.4 5.062Zm0 8.806a3.468 3.468 0 1 1 0-6.935 3.468 3.468 0 0 1 0 6.935Zm5.553-7.774a1.247 1.247 0 1 0 0-2.494 1.247 1.247 0 0 0 0 2.494Z"/></g><defs><clipPath id="a"><path fill="#fff" d="M0 0h21v21H0z"/></clipPath></defs></svg>