<svg xmlns="http://www.w3.org/2000/svg" width="17" height="13" fill="none" viewBox="0 0 17 13"><g clip-path="url(#a)"><path fill="#1F2020" d="M16.71 0v2.233c-1.193.33-2.089.862-2.686 1.6-.582.736-.874 1.786-.874 3.15h.044c.51-.267 1.303-.4 2.38-.4.89 1.27 1.333 2.735 1.333 4.396-.218.517-.604.94-1.157 1.27-.54.329-1.23.493-2.076.493-.844 0-1.74-.274-2.686-.823-.408-1.63-.612-3.354-.612-5.172 0-1.818.56-3.346 1.682-4.584C13.194.909 14.745.188 16.711 0ZM6.336 0v2.233c-1.194.33-2.09.862-2.687 1.6-.583.736-.874 1.786-.874 3.15h.044c.51-.267 1.303-.4 2.38-.4.89 1.27 1.333 2.735 1.333 4.396-.218.517-.604.94-1.157 1.27-.54.329-1.23.493-2.076.493-.844 0-1.74-.274-2.686-.823C.204 10.29 0 8.566 0 6.747 0 4.93.56 3.401 1.682 2.163 2.818.909 4.369.188 6.335 0Z"/></g><defs><clipPath id="a"><path fill="#fff" d="M0 0h17v13H0z"/></clipPath></defs></svg>