<svg xmlns="http://www.w3.org/2000/svg" width="64" height="21" fill="none" viewBox="0 0 64 21"><path fill="#202020" d="M.89 9.753c.595-1.11 1.417-1.967 2.467-2.577 1.05-.61 2.255-.914 3.61-.914 1.747 0 3.193.443 4.337 1.326.962.744 1.658 1.744 2.087 2.992a.555.555 0 0 1-.523.73h-2.73a.545.545 0 0 1-.498-.329 2.756 2.756 0 0 0-.905-1.128c-.483-.351-1.08-.53-1.792-.53-1.018 0-1.823.374-2.417 1.12-.594.747-.891 1.809-.891 3.182s.297 2.41.89 3.156c.595.747 1.4 1.12 2.418 1.12 1.314 0 2.213-.543 2.694-1.632a.546.546 0 0 1 .498-.326h2.725c.377 0 .649.376.522.735-.431 1.207-1.127 2.19-2.092 2.95-1.152.912-2.593 1.366-4.323 1.366-1.355 0-2.56-.304-3.61-.914-1.05-.61-1.872-1.468-2.466-2.577C.297 16.394 0 15.1 0 13.625s.297-2.77.89-3.878zm15.27-.011c.566-1.118 1.339-1.976 2.315-2.577.973-.602 2.065-.903 3.266-.903 1.05 0 1.972.214 2.758.643.79.43 1.419.97 1.895 1.625V7.05c0-.306.247-.557.55-.557h2.485c.303 0 .55.25.55.557v13.16a.555.555 0 0 1-.55.558h-2.486a.555.555 0 0 1-.55-.557v-1.53c-.459.669-1.088 1.223-1.894 1.66-.806.438-1.732.658-2.785.658a5.92 5.92 0 0 1-3.242-.927c-.976-.619-1.746-1.49-2.315-2.616-.57-1.126-.853-2.419-.853-3.878 0-1.46.284-2.722.853-3.84l.003.004Zm9.728 1.635a3.6 3.6 0 0 0-1.375-1.443 3.643 3.643 0 0 0-1.856-.502c-.66 0-1.27.165-1.831.49-.559.326-1.012.803-1.361 1.43-.347.627-.523 1.37-.523 2.228 0 .858.173 1.61.523 2.254.346.644.805 1.137 1.372 1.482a3.458 3.458 0 0 0 1.817.516c.643 0 1.279-.168 1.856-.502.577-.334 1.034-.816 1.375-1.443.338-.627.508-1.379.508-2.254 0-.874-.17-1.627-.508-2.253l.003-.003Zm29.255-3.48c1.059 1.072 1.59 2.571 1.59 4.496v7.817a.555.555 0 0 1-.55.558h-2.461a.555.555 0 0 1-.55-.558v-7.326c0-1.118-.28-1.973-.839-2.564-.56-.593-1.322-.888-2.287-.888-.965 0-1.733.295-2.302.888-.569.594-.852 1.45-.852 2.564v7.326a.555.555 0 0 1-.55.558H43.88a.555.555 0 0 1-.55-.558v-7.326c0-1.118-.28-1.973-.839-2.564-.56-.593-1.322-.888-2.287-.888-.965 0-1.76.295-2.326.888-.57.594-.853 1.45-.853 2.564v7.326a.555.555 0 0 1-.55.558h-2.46a.555.555 0 0 1-.55-.558V7.05c0-.307.247-.557.55-.557h2.46c.303 0 .55.25.55.557v1.17a4.78 4.78 0 0 1 1.768-1.418 5.464 5.464 0 0 1 2.379-.515c1.102 0 2.084.236 2.95.707a4.964 4.964 0 0 1 2.01 2.023c.456-.825 1.122-1.485 1.996-1.984a5.613 5.613 0 0 1 2.835-.746c1.73 0 3.123.537 4.182 1.61h-.003Zm8.532-.887v13.2a.555.555 0 0 1-.55.557h-2.46a.555.555 0 0 1-.55-.557V7.01c0-.306.247-.557.55-.557h2.46c.303 0 .55.251.55.558Zm.164-5.267-1.56-1.58a.545.545 0 0 0-.777 0l-1.56 1.58a.562.562 0 0 0 0 .788l1.56 1.58a.545.545 0 0 0 .777 0l1.56-1.58a.562.562 0 0 0 0-.788Z"/></svg>