<svg xmlns="http://www.w3.org/2000/svg" width="86" height="92" fill="none" viewBox="0 0 86 92"><path fill="#1F2020" fill-rule="evenodd" d="M39.85.588C6.893 5.778-10.994 44.74 7.358 71.378c9.025 13.12 32.819 22.94 48.6 20.04 2.351-.426 2.433-1.81.109-1.73-12.007 1.81-22.372-2.715-22.372-2.715 22.946 2.901 43.786-11.416 50.268-33.718C92.989 22.065 70.89-4.308 39.849.588Zm14.358 2.875c2.242.559 4.65 2.129 5.77 3.46 1.888 2.235 1.915-.48.274-2.21l-1.012-1.09c.027.026 30.057 8.888 21.47 45.294-3.31 13.998-12.663 27.172-27.432 33.08-29.1 11.63-53.358-9.927-48.19-42.82C8.536 17.46 34.955-1.434 54.209 3.463Z" clip-rule="evenodd"/></svg>