<svg xmlns="http://www.w3.org/2000/svg" width="120" height="21" fill="none" viewBox="0 0 120 21"><g clip-path="url(#a)"><path fill="#202020" d="M10.45 3.5h-3.3c-.608 0-1.1.522-1.1 1.167v3.5h4.4a.378.378 0 0 1 .318.165.428.428 0 0 1 .056.371l-.814 2.567a.554.554 0 0 1-.517.397H6.05v8.75c0 .322-.246.583-.55.583H2.75c-.304 0-.55-.261-.55-.583v-8.75H.55c-.304 0-.55-.262-.55-.584V8.75c0-.322.246-.583.55-.583H2.2v-3.5C2.2 2.089 4.17 0 6.6 0h3.85c.304 0 .55.261.55.583v2.334c0 .322-.246.583-.55.583Z"/></g><g fill="#202020" clip-path="url(#b)"><path d="M53.4 1.874c2.779 0 3.105.013 4.203.062 1.016.046 1.565.215 1.932.36.487.19.834.412 1.198.776.363.363.59.71.776 1.197.14.367.313.917.359 1.932.05 1.098.062 1.425.062 4.203 0 2.779-.013 3.105-.062 4.203-.046 1.016-.215 1.565-.36 1.932a3.23 3.23 0 0 1-.776 1.198c-.363.363-.71.59-1.197.776-.367.14-.916.313-1.932.359-1.098.05-1.424.062-4.203.062-2.779 0-3.105-.012-4.203-.062-1.016-.046-1.565-.215-1.932-.36a3.227 3.227 0 0 1-1.197-.775 3.178 3.178 0 0 1-.777-1.198c-.14-.367-.313-.916-.359-1.932-.05-1.098-.062-1.424-.062-4.203 0-2.778.013-3.105.062-4.203.046-1.015.215-1.565.36-1.932.19-.487.412-.834.776-1.197a3.17 3.17 0 0 1 1.197-.776c.367-.14.916-.314 1.932-.36 1.098-.053 1.429-.062 4.203-.062ZM53.4 0c-2.824 0-3.179.012-4.29.062-1.106.05-1.862.227-2.522.483a5.069 5.069 0 0 0-1.842 1.201 5.158 5.158 0 0 0-1.201 1.842c-.256.66-.434 1.416-.483 2.526C43.012 7.221 43 7.576 43 10.4s.012 3.179.062 4.29c.05 1.106.227 1.862.483 2.526a5.07 5.07 0 0 0 1.201 1.842c.578.578 1.16.933 1.842 1.201.66.256 1.416.434 2.526.483 1.111.05 1.462.062 4.29.062 2.828 0 3.18-.012 4.29-.062 1.106-.05 1.862-.227 2.526-.483a5.07 5.07 0 0 0 1.842-1.201 5.16 5.16 0 0 0 1.201-1.842c.256-.66.434-1.416.483-2.526.05-1.111.062-1.462.062-4.29 0-2.828-.012-3.179-.062-4.29-.05-1.106-.227-1.862-.483-2.526a5.069 5.069 0 0 0-1.201-1.842A5.159 5.159 0 0 0 60.22.541c-.66-.256-1.417-.434-2.526-.483C56.579.012 56.224 0 53.4 0Z"/><path d="M53.4 5.062a5.343 5.343 0 1 0 .002 10.686A5.343 5.343 0 0 0 53.4 5.062Zm0 8.806a3.468 3.468 0 1 1 0-6.935 3.468 3.468 0 0 1 0 6.935Zm5.553-7.774a1.247 1.247 0 1 0 0-2.494 1.247 1.247 0 0 0 0 2.494Z"/></g><g fill="#202020" clip-path="url(#c)"><path d="M107.577 9.028a.934.934 0 0 1-.94-.926c0-.51.422-.926.94-.926.517 0 .939.415.939.926a.93.93 0 0 1-.939.926Zm-7.321-.545c.15.348.497.586.899.586a.97.97 0 0 0 .981-.967.97.97 0 0 0-.981-.967.976.976 0 0 0-.981.967 1 1 0 0 0 .082.381Zm11.788.504c-.552 0-.994-.429-.994-.953 0-.525.449-.954.994-.954.388 0 .729.218.892.532a.9.9 0 0 1 .102.422c0 .15-.041.3-.102.422a.994.994 0 0 1-.892.531Z"/><path fill-rule="evenodd" d="M113.431 0h-13.87C97.6 0 96 1.62 96 3.593v8.696c0 1.98 1.606 3.593 3.562 3.593h4.897l1.673 2.919a.392.392 0 0 0 .682 0l1.673-2.92h4.951c1.963 0 3.562-1.619 3.562-3.592v-8.69C117 1.62 115.395 0 113.431 0Zm-5.854 6.168c-1.083 0-1.961.865-1.961 1.934 0 1.07.878 1.934 1.961 1.934 1.083 0 1.961-.865 1.961-1.934 0-1.07-.872-1.934-1.961-1.934Zm-7.328.443c.307-.28.702-.443 1.124-.443.98 0 1.764.872 1.764 1.94 0 1.07-.79 1.935-1.764 1.935-.429 0-.817-.17-1.124-.443v.348h-1.09V5.01h1.09v1.6Zm12.687-.361v.306a1.784 1.784 0 0 0-1.096-.381c-1.001 0-1.812.837-1.812 1.866 0 1.028.811 1.865 1.812 1.865.415 0 .796-.143 1.096-.38v.517s-.109.51-.872.51v.96s.824.096 1.56-.64c0 0 .34-.36.415-.837V6.25h-1.103Zm-9.677-.348v-.987s.722-.095 1.362.66c0 0 .293.368.361.859v3.513h-1.124V6.461c-.095-.49-.599-.559-.599-.559Z" clip-rule="evenodd"/></g><defs><clipPath id="a"><path fill="#fff" d="M0 0h11v21H0z"/></clipPath><clipPath id="b"><path fill="#fff" d="M43 0h21v21H43z"/></clipPath><clipPath id="c"><path fill="#fff" d="M96 0h21v19H96z"/></clipPath></defs></svg>