<svg xmlns="http://www.w3.org/2000/svg" width="92" height="30" fill="none" viewBox="0 0 92 30"><mask id="a" width="92" height="31" x="0" y="-1" maskUnits="userSpaceOnUse" style="mask-type:luminance"><path fill="#fff" d="M92-.002H0v30h92v-30Z"/></mask><g mask="url(#a)"><path fill="#fff" d="M1.28 13.932c.854-1.584 2.036-2.81 3.546-3.68 1.51-.873 3.241-1.306 5.19-1.306 2.51 0 4.589.632 6.233 1.894 1.383 1.063 2.383 2.491 3 4.274.178.51-.217 1.043-.751 1.043h-3.925a.783.783 0 0 1-.715-.47 3.942 3.942 0 0 0-1.3-1.611c-.696-.502-1.554-.757-2.578-.757-1.462 0-2.62.534-3.474 1.6-.854 1.067-1.28 2.583-1.28 4.545 0 1.962.426 3.443 1.28 4.51.854 1.066 2.012 1.6 3.474 1.6 1.89 0 3.182-.777 3.874-2.333a.786.786 0 0 1 .715-.465h3.917c.542 0 .933.537.751 1.05-.62 1.723-1.62 3.128-3.008 4.215-1.656 1.301-3.727 1.95-6.213 1.95-1.949 0-3.68-.434-5.19-1.305-1.51-.872-2.692-2.098-3.545-3.682C.427 23.42 0 21.574 0 19.464c0-2.109.427-3.956 1.28-5.54v.008Zm21.95-.016c.814-1.595 1.924-2.821 3.327-3.68 1.4-.86 2.969-1.29 4.696-1.29 1.51 0 2.834.306 3.964.919 1.135.613 2.04 1.385 2.724 2.32v-2.113c0-.438.355-.796.79-.796h3.573c.435 0 .79.358.79.796v18.8a.796.796 0 0 1-.79.797h-3.573a.796.796 0 0 1-.79-.796v-2.185c-.66.955-1.566 1.747-2.724 2.372-1.158.625-2.49.939-4.004.939-1.707 0-3.26-.442-4.66-1.325-1.403-.884-2.51-2.13-3.328-3.737-.818-1.608-1.225-3.455-1.225-5.54 0-2.086.407-3.889 1.225-5.484l.004.003Zm13.983 2.337c-.486-.896-1.146-1.584-1.976-2.062a5.263 5.263 0 0 0-2.668-.716 5.18 5.18 0 0 0-2.632.7c-.803.466-1.455 1.146-1.957 2.042-.498.895-.75 1.958-.75 3.184 0 1.226.248 2.3.75 3.22.498.919 1.158 1.623 1.973 2.117.814.49 1.687.736 2.612.736s1.838-.239 2.668-.716c.83-.478 1.486-1.166 1.977-2.062.486-.896.73-1.97.73-3.22 0-1.25-.244-2.324-.73-3.22l.003-.003Zm42.056-4.972c1.521 1.532 2.284 3.674 2.284 6.424v11.167a.796.796 0 0 1-.79.796h-3.538a.796.796 0 0 1-.79-.796V18.405c0-1.596-.403-2.818-1.206-3.661-.806-.848-1.9-1.27-3.288-1.27s-2.49.422-3.309 1.27c-.818.847-1.225 2.07-1.225 3.661v10.467a.796.796 0 0 1-.79.796h-3.538a.796.796 0 0 1-.79-.796V18.405c0-1.596-.404-2.818-1.206-3.661-.806-.848-1.901-1.27-3.288-1.27-1.388 0-2.53.422-3.344 1.27-.819.847-1.226 2.07-1.226 3.661v10.467a.796.796 0 0 1-.79.796h-3.538a.796.796 0 0 1-.79-.796v-18.8c0-.438.355-.797.79-.797h3.538c.435 0 .79.359.79.796v1.672c.66-.86 1.506-1.532 2.542-2.026 1.035-.49 2.174-.736 3.419-.736 1.585 0 2.996.338 4.24 1.01a7.113 7.113 0 0 1 2.89 2.89c.656-1.178 1.613-2.121 2.87-2.834a8.108 8.108 0 0 1 4.075-1.066c2.486 0 4.49.768 6.012 2.3h-.004m12.265-1.266v18.857a.796.796 0 0 1-.79.796h-3.538a.796.796 0 0 1-.791-.796V10.015c0-.438.356-.796.79-.796h3.538c.435 0 .79.358.79.796Z"/><path fill="#FFFF50" d="M91.769 2.49 89.526.233a.787.787 0 0 0-1.118 0l-2.24 2.257a.8.8 0 0 0 0 1.126l2.241 2.257c.309.31.81.31 1.118 0l2.242-2.257a.8.8 0 0 0 0-1.126"/></g></svg>