<svg xmlns="http://www.w3.org/2000/svg" width="78" height="142" fill="none" viewBox="0 0 78 142"><g clip-path="url(#a)"><path stroke="#000" stroke-linejoin="round" stroke-miterlimit="10" stroke-width="3" d="m22.212 130.823-.907.151c-2.118.302-3.63 2.265-3.63 4.378v4.529c0 .906.605 1.51 1.512 1.51h12.125c.912 0 1.744-.514 2.152-1.328l.726-1.448m-11.978-7.792v-9.058h12.1v16.334c0 .179-.042.356-.122.516m-11.978-7.792 9.744.151c.745.074 2.234.702 2.234 2.623v5.018"/><path stroke="#000" stroke-miterlimit="10" stroke-width="3" d="M52.31 121.765h-12.1v18.116c0 .906.605 1.51 1.512 1.51H58.36c.907 0 1.512-.604 1.512-1.51v-4.529c0-2.113-1.512-4.076-3.63-4.378l-3.932-.151v-9.058Z"/><path fill="#000" d="M36.251 15.778c0 1-.601 1.715-1.203 1.715-.701 0-1.202-.858-1.202-1.715 0-1 .601-1.715 1.202-1.715.702 0 1.203.857 1.203 1.715Zm7.903 0c0 1-.601 1.715-1.202 1.715-.702 0-1.203-.858-1.203-1.715 0-1 .601-1.715 1.203-1.715.601 0 1.202.857 1.202 1.715Z"/><path stroke="#000" stroke-miterlimit="10" stroke-width="3" d="M20.7 18.802V36.92C13.896 60.039 7.092 83.299.686 106.431c-.513 1.853.176 3.93 1.951 4.676 1.285.54 2.937.996 4.905.996 1.74 0 3.255-.384 4.472-.857 1.844-.716 3.995-.653 5.847.041 1.223.458 2.749.816 4.502.816 1.82 0 3.38-.388 4.62-.864 1.847-.709 4-.646 5.851.048 1.223.458 2.749.816 4.502.816a12.49 12.49 0 0 0 4.855-.785c1.986-.746 4.362-.785 6.353-.049 1.261.466 2.84.834 4.673.834 2.132 0 3.893-.536 5.218-1.133 1.6-.721 3.42-.766 5.027-.062a14.815 14.815 0 0 0 4.728 1.195 15.267 15.267 0 0 0 6.975-1.022c1.864-.733 2.616-2.871 2.053-4.791-3.23-11.001-6.432-22.032-9.633-33.063-3.516-12.115-7.033-24.23-10.587-36.308V18.803c0-3.129-.258-5.857-1.615-8.41a1.145 1.145 0 0 1-.083-.873c.732-2.382 1.238-6.608.365-7.977-.946-1.484-5.406.45-7.623 1.656A18.021 18.021 0 0 0 38.849.686a18.01 18.01 0 0 0-7.976 1.855c-2.172-1.324-7.794-2.58-8.73-.914-.785 1.4.012 5.28.754 7.933.074.267.04.55-.09.794a17.93 17.93 0 0 0-2.107 8.448Z"/></g><defs><clipPath id="a"><path fill="#fff" d="M0 0h78v142H0z"/></clipPath></defs></svg>