<svg xmlns="http://www.w3.org/2000/svg" width="32" height="32" fill="none" viewBox="0 0 32 32"><g clip-path="url(#a)"><path fill="#fff" stroke="gray" d="m31.457 12.23.021.067a.48.48 0 0 1 .01.253.449.449 0 0 1-.116.212l-7.212 7.392-.177.18.041.25 1.707 10.395a.482.482 0 0 1-.025.252.433.433 0 0 1-.14.189.36.36 0 0 1-.399.031l-8.914-4.915-.242-.133-.241.133-8.91 4.918a.361.361 0 0 1-.4-.031.434.434 0 0 1-.14-.19.482.482 0 0 1-.025-.25v-.001l1.704-10.397.04-.25-.176-.18-7.213-7.39-.006-.007-.006-.006a.448.448 0 0 1-.123-.213.483.483 0 0 1 .006-.26.443.443 0 0 1 .131-.206.376.376 0 0 1 .198-.09l.01-.002 9.967-1.502.264-.04.114-.242L15.662.735a.424.424 0 0 1 .15-.175.365.365 0 0 1 .399 0 .424.424 0 0 1 .15.175l4.465 9.46.114.241.263.04 9.961 1.526h.002a.379.379 0 0 1 .19.092c.04.037.075.083.1.136Z"/></g><defs><clipPath id="a"><path fill="#fff" d="M0 0h32v32H0z"/></clipPath></defs></svg>