<svg xmlns="http://www.w3.org/2000/svg" width="32" height="32" fill="none" viewBox="0 0 32 32"><g clip-path="url(#a)"><path fill="#000" stroke="gray" stroke-width=".5" d="m31.785 12.104.027.089a.83.83 0 0 1 .016.437.8.8 0 0 1-.206.377l-7.212 7.391-.053.055.012.075 1.708 10.394a.832.832 0 0 1-.045.435.784.784 0 0 1-.254.341.71.71 0 0 1-.78.06l-8.914-4.915-.072-.04-.073.04-8.91 4.917a.71.71 0 0 1-.78-.059.784.784 0 0 1-.255-.34.832.832 0 0 1-.045-.436L7.654 20.53l.012-.075-.053-.055L.4 13.01l-.004-.004a.798.798 0 0 1-.22-.38.833.833 0 0 1 .01-.447.793.793 0 0 1 .236-.369.725.725 0 0 1 .383-.173H.81l9.966-1.503.079-.012.034-.073L15.347.585a.775.775 0 0 1 .276-.319.714.714 0 0 1 .78 0 .775.775 0 0 1 .275.319l4.466 9.461.034.072.079.012 9.964 1.526a.728.728 0 0 1 .369.178.8.8 0 0 1 .195.27Z"/></g><defs><clipPath id="a"><path fill="#fff" d="M0 0h32v32H0z"/></clipPath></defs></svg>