<svg width="15" height="15" viewBox="0 0 15 15" fill="none" xmlns="http://www.w3.org/2000/svg">
<path d="M0.870337 3.5416C1.4469 2.40456 2.23333 1.5312 3.2268 0.918688C4.21751 0.306236 5.32858 0 6.5516 0C7.62061 0 8.55821 0.218331 9.35859 0.655007C10.1618 1.09168 10.8027 1.64178 11.2868 2.30816V0.802483C11.2868 0.490547 11.5387 0.235345 11.8465 0.235345H14.3765C14.6843 0.235345 14.9363 0.490547 14.9363 0.802483V14.1975C14.9363 14.5095 14.6843 14.7647 14.3765 14.7647H11.8465C11.5387 14.7647 11.2868 14.5095 11.2868 14.1975V12.6408C10.8194 13.3213 10.1786 13.8856 9.35859 14.3308C8.5386 14.776 7.59548 15 6.52356 15C5.31456 15 4.21474 14.6852 3.22404 14.0558C2.2305 13.4263 1.4469 12.5387 0.867575 11.3932C0.288247 10.2476 0 8.93191 0 7.44611C0 5.96031 0.288247 4.67579 0.867575 3.53875L0.870337 3.5416ZM10.7719 5.20601C10.4277 4.56806 9.9603 4.07752 9.37261 3.73724C8.78486 3.39697 8.15519 3.22683 7.48353 3.22683C6.81187 3.22683 6.19056 3.39412 5.61966 3.72592C5.05152 4.05765 4.58973 4.54256 4.23429 5.18051C3.88168 5.81853 3.70254 6.57561 3.70254 7.44896C3.70254 8.32231 3.87892 9.08787 4.23429 9.74292C4.58697 10.3979 5.05428 10.8998 5.63085 11.2514C6.20734 11.6002 6.82583 11.776 7.4807 11.776C8.13558 11.776 8.7821 11.6058 9.36978 11.2656C9.95746 10.9253 10.4221 10.4348 10.7691 9.79678C11.1134 9.15876 11.2868 8.39321 11.2868 7.50282C11.2868 6.61244 11.1134 5.84689 10.7691 5.20886L10.7719 5.20601Z" fill="#202020"/>
</svg>
