<svg width="364" height="47" viewBox="0 0 364 47" fill="none" xmlns="http://www.w3.org/2000/svg">
<path d="M1.5003 1.50048C4.70843 1.92869 7.75259 4.51433 10.3569 6.66624C15.0661 10.5575 20.5144 11.9345 25.279 15.8057C33.3704 22.3798 43.7643 26.0665 52.742 29.7136C60.3912 32.8211 68.4545 34.7219 75.9999 37.959C80.1332 39.7323 84.6731 40.9231 88.9498 41.6844C92.9343 42.3933 97.1199 41.9072 101.081 42.8267C119.452 47.0913 139.814 44.8142 158.239 42.5785C168.515 41.3314 178.901 37.0729 188.791 33.2401C200.198 28.8198 212.504 24.7832 224.218 22.0643C228.132 21.1558 231.987 18.2298 235.94 17.6436C240.374 16.9858 245.005 15.6613 249.336 14.2162C252.723 13.0856 256.911 11.3353 260.388 11.3353C263.461 11.3353 267.962 11.3705 270.919 10.2426C274.053 9.04709 278.377 8.80308 281.636 8.6531C285.83 8.46005 290.109 7.75903 294.251 7.75903C302.22 7.75903 309.634 7.73993 317.286 9.59684C319.286 10.0821 321.35 10.8903 323.389 11.385C325.364 11.8644 327.913 11.856 329.714 12.9248C333.806 15.352 339.019 14.3268 343.261 16.0044C348.33 18.0095 353.736 18.1355 358.517 20.9715C359.254 21.4092 362.28 22.4314 362.499 23.4551" stroke="black" stroke-width="3" stroke-linecap="round"/>
</svg>
