<svg width="64" height="21" viewBox="0 0 64 21" fill="none" xmlns="http://www.w3.org/2000/svg">
<path d="M0.890873 9.75267C1.48479 8.64387 2.30693 7.78581 3.35728 7.17576C4.40763 6.56562 5.61196 6.26196 6.96751 6.26196C8.71353 6.26196 10.1598 6.70492 11.3037 7.58806C12.266 8.33188 12.9617 9.33197 13.3906 10.5801C13.5144 10.9367 13.2394 11.31 12.8682 11.31H10.1378C9.92334 11.31 9.72814 11.1819 9.64014 10.9812C9.43117 10.516 9.13148 10.1399 8.73551 9.85298C8.25162 9.50193 7.65496 9.32364 6.94278 9.32364C5.92542 9.32364 5.11978 9.69695 4.52586 10.4436C3.93194 11.1902 3.63499 12.2516 3.63499 13.6251C3.63499 14.9985 3.93194 16.0348 4.52586 16.7814C5.11978 17.5281 5.92542 17.9014 6.94278 17.9014C8.25711 17.9014 9.15624 17.3582 9.63743 16.2688C9.72536 16.0711 9.92063 15.9429 10.1351 15.9429H12.86C13.2367 15.9429 13.5089 16.319 13.3824 16.6784C12.9507 17.8846 12.255 18.8681 11.2899 19.6286C10.1378 20.5396 8.69704 20.9937 6.96751 20.9937C5.61196 20.9937 4.40763 20.69 3.35728 20.08C2.30693 19.4699 1.48479 18.6118 0.890873 17.503C0.296958 16.3942 0 15.1016 0 13.6251C0 12.1486 0.296958 10.8559 0.890873 9.74707V9.75267Z" fill="#202020"/>
<path d="M16.1593 9.74154C16.7258 8.62441 17.4984 7.76635 18.4745 7.16456C19.4479 6.56284 20.5395 6.26196 21.7411 6.26196C22.7914 6.26196 23.7125 6.47647 24.4989 6.9055C25.2881 7.33452 25.9177 7.87499 26.3934 8.5297V7.05039C26.3934 6.74392 26.6408 6.49319 26.9433 6.49319H29.4289C29.7314 6.49319 29.9789 6.74392 29.9789 7.05039V20.2109C29.9789 20.5173 29.7314 20.7681 29.4289 20.7681H26.9433C26.6408 20.7681 26.3934 20.5173 26.3934 20.2109V18.6815C25.9342 19.35 25.3045 19.9044 24.4989 20.3419C23.6933 20.7792 22.7667 20.9993 21.7135 20.9993C20.5257 20.9993 19.4451 20.69 18.4718 20.0716C17.4956 19.4531 16.7258 18.5811 16.1566 17.4556C15.5874 16.3302 15.3042 15.0375 15.3042 13.5777C15.3042 12.1179 15.5874 10.8559 16.1566 9.73874L16.1593 9.74154ZM25.8874 11.3768C25.5493 10.75 25.0901 10.2681 24.5127 9.93376C23.9352 9.59944 23.3166 9.43228 22.6567 9.43228C21.9968 9.43228 21.3864 9.59664 20.8255 9.92263C20.2673 10.2486 19.8136 10.725 19.4643 11.3518C19.1179 11.9786 18.9419 12.7224 18.9419 13.5805C18.9419 14.4385 19.1152 15.1907 19.4643 15.8343C19.8108 16.4778 20.27 16.9709 20.8364 17.3164C21.4028 17.659 22.0105 17.8317 22.6539 17.8317C23.2973 17.8317 23.9325 17.6646 24.5099 17.3303C25.0873 16.996 25.5438 16.514 25.8847 15.8872C26.2229 15.2603 26.3934 14.5082 26.3934 13.6334C26.3934 12.7586 26.2229 12.0065 25.8847 11.3796L25.8874 11.3768Z" fill="#202020"/>
<path d="M55.1433 7.89689C56.2019 8.96943 56.7326 10.4683 56.7326 12.3933V20.2104C56.7326 20.5169 56.4851 20.7676 56.1826 20.7676H53.7218C53.4193 20.7676 53.1718 20.5169 53.1718 20.2104V12.8836C53.1718 11.7665 52.8913 10.9112 52.3332 10.3206C51.7723 9.72718 51.0107 9.43192 50.0455 9.43192C49.0804 9.43192 48.3133 9.72718 47.7441 10.3206C47.1749 10.914 46.8917 11.7692 46.8917 12.8836V20.2104C46.8917 20.5169 46.6443 20.7676 46.3418 20.7676H43.8809C43.5784 20.7676 43.3309 20.5169 43.3309 20.2104V12.8836C43.3309 11.7665 43.0505 10.9112 42.4923 10.3206C41.9314 9.72718 41.1697 9.43192 40.2047 9.43192C39.2395 9.43192 38.4449 9.72718 37.8785 10.3206C37.3093 10.914 37.0261 11.7692 37.0261 12.8836V20.2104C37.0261 20.5169 36.7787 20.7676 36.4762 20.7676H34.0152C33.7128 20.7676 33.4653 20.5169 33.4653 20.2104V7.04996C33.4653 6.7435 33.7128 6.49278 34.0152 6.49278H36.4762C36.7787 6.49278 37.0261 6.7435 37.0261 7.04996V8.22001C37.4853 7.61829 38.0737 7.14747 38.7941 6.80201C39.5145 6.45935 40.3064 6.28662 41.1725 6.28662C42.2751 6.28662 43.2567 6.52342 44.1229 6.99424C44.9862 7.46786 45.6571 8.14203 46.1328 9.01682C46.5892 8.19215 47.2547 7.53191 48.1291 7.03323C49.0006 6.53457 49.9465 6.28662 50.9639 6.28662C52.6934 6.28662 54.0875 6.8243 55.146 7.89689H55.1433Z" fill="#202020"/>
<path d="M63.6755 7.01057V20.21C63.6755 20.5165 63.4281 20.7672 63.1256 20.7672H60.6647C60.3623 20.7672 60.1147 20.5165 60.1147 20.21V7.01057C60.1147 6.7041 60.3623 6.45337 60.6647 6.45337H63.1256C63.4281 6.45337 63.6755 6.7041 63.6755 7.01057Z" fill="#202020"/>
<path d="M63.8391 1.74307L62.2798 0.163194C62.065 -0.0543978 61.7169 -0.0543978 61.5021 0.163194L59.9428 1.74307C59.7281 1.96066 59.7281 2.31345 59.9428 2.53104L61.5021 4.11091C61.7169 4.3285 62.065 4.3285 62.2798 4.11091L63.8391 2.53104C64.0538 2.31345 64.0538 1.96066 63.8391 1.74307Z" fill="#202020"/>
</svg>
