<svg width="20" height="22" viewBox="0 0 20 22" fill="none" xmlns="http://www.w3.org/2000/svg">
<path d="M1.32762 5.16969C2.2127 3.52757 3.43788 2.2568 5.00316 1.35333C6.56843 0.449715 8.36317 0 10.3833 0C12.9853 0 15.1405 0.656006 16.8452 1.96394C18.2793 3.06552 19.316 4.54664 19.9552 6.39506C20.1397 6.92315 19.7299 7.47602 19.1767 7.47602H15.1078C14.7882 7.47602 14.4973 7.2863 14.3661 6.98919C14.0547 6.3002 13.6081 5.74319 13.018 5.31825C12.2969 4.79835 11.4077 4.5343 10.3464 4.5343C8.83031 4.5343 7.6297 5.08717 6.74463 6.1929C5.85955 7.29864 5.41701 8.87057 5.41701 10.9047C5.41701 12.9386 5.85955 14.4735 6.74463 15.5792C7.6297 16.6849 8.83031 17.2378 10.3464 17.2378C12.3051 17.2378 13.645 16.4333 14.3621 14.82C14.4931 14.5272 14.7841 14.3373 15.1037 14.3373H19.1645C19.7258 14.3373 20.1315 14.8944 19.943 15.4266C19.2996 17.213 18.2629 18.6695 16.8246 19.7958C15.1078 21.145 12.9607 21.8175 10.3833 21.8175C8.36317 21.8175 6.56843 21.3678 5.00316 20.4643C3.43788 19.5607 2.2127 18.2899 1.32762 16.6478C0.442539 15.0057 0 13.0913 0 10.9047C0 8.71797 0.442539 6.80351 1.32762 5.1614V5.16969Z" fill="white"/>
</svg>
