<svg width="9" height="7" viewBox="0 0 9 7" fill="none" xmlns="http://www.w3.org/2000/svg">
<path d="M8.69532 0.292807C8.8828 0.480348 8.98812 0.734673 8.98812 0.999856C8.98812 1.26504 8.8828 1.51936 8.69532 1.70691L3.69497 6.70725C3.50743 6.89474 3.2531 7.00006 2.98792 7.00006C2.72274 7.00006 2.46841 6.89474 2.28087 6.70725L0.280731 4.70711C0.0985606 4.5185 -0.00224077 4.26588 3.78053e-05 4.00366C0.00231638 3.74145 0.107493 3.49062 0.292914 3.3052C0.478335 3.11978 0.729165 3.0146 0.99138 3.01232C1.25359 3.01004 1.50621 3.11085 1.69483 3.29302L2.98792 4.58611L7.28122 0.292807C7.46876 0.105323 7.72309 0 7.98827 0C8.25345 0 8.50778 0.105323 8.69532 0.292807Z" fill="white"/>
</svg>
