<svg width="14" height="15" viewBox="0 0 14 15" fill="none" xmlns="http://www.w3.org/2000/svg">
<path d="M0.907096 3.55428C1.51183 2.42529 2.34894 1.5516 3.41842 0.930441C4.4879 0.309189 5.71415 0 7.09439 0C8.87221 0 10.3448 0.451019 11.5095 1.35025C12.4894 2.10761 13.1977 3.12592 13.6345 4.39674C13.7605 4.75982 13.4805 5.13993 13.1025 5.13993H10.3224C10.104 5.13993 9.90529 5.00949 9.81569 4.80522C9.60291 4.33153 9.29776 3.94857 8.89459 3.65641C8.40188 3.29897 7.79436 3.11744 7.06921 3.11744C6.03332 3.11744 5.21301 3.49754 4.60828 4.25776C4.00355 5.01798 3.70119 6.09871 3.70119 7.4972C3.70119 8.89561 4.00355 9.95083 4.60828 10.711C5.21301 11.4713 6.03332 11.8514 7.06921 11.8514C8.40748 11.8514 9.32298 11.2983 9.81293 10.1891C9.90246 9.98775 10.1013 9.85724 10.3197 9.85724H13.0941C13.4777 9.85724 13.7549 10.2402 13.6261 10.6061C13.1865 11.8343 12.4782 12.8357 11.4955 13.6101C10.3224 14.5376 8.85542 15 7.09439 15C5.71415 15 4.4879 14.6908 3.41842 14.0697C2.34894 13.4484 1.51183 12.5747 0.907096 11.4457C0.302366 10.3168 0 9.00059 0 7.4972C0 5.9938 0.302366 4.67757 0.907096 3.54858V3.55428Z" fill="#202020"/>
</svg>
