<svg width="24" height="15" viewBox="0 0 24 15" fill="none" xmlns="http://www.w3.org/2000/svg">
<path d="M22.3607 1.66098C23.4526 2.76729 24 4.31333 24 6.29895V14.3623C24 14.6784 23.7447 14.9371 23.4327 14.9371H20.8943C20.5823 14.9371 20.3271 14.6784 20.3271 14.3623V6.80475C20.3271 5.65244 20.0378 4.77017 19.4621 4.16098C18.8834 3.54891 18.0979 3.24435 17.1023 3.24435C16.1068 3.24435 15.3155 3.54891 14.7284 4.16098C14.1413 4.77306 13.8492 5.65525 13.8492 6.80475V14.3623C13.8492 14.6784 13.5939 14.9371 13.282 14.9371H10.7436C10.4316 14.9371 10.1763 14.6784 10.1763 14.3623V6.80475C10.1763 5.65244 9.88704 4.77017 9.31127 4.16098C8.7327 3.54891 7.94704 3.24435 6.95157 3.24435C5.95603 3.24435 5.13636 3.54891 4.55212 4.16098C3.96502 4.77306 3.6729 5.65525 3.6729 6.80475V14.3623C3.6729 14.6784 3.41766 14.9371 3.10567 14.9371H0.567231C0.255308 14.9371 0 14.6784 0 14.3623V0.787375C0 0.471271 0.255308 0.212649 0.567231 0.212649H3.10567C3.41766 0.212649 3.6729 0.471271 3.6729 0.787375V1.99427C4.14656 1.3736 4.75347 0.887956 5.49658 0.531619C6.23968 0.178164 7.05648 0 7.94991 0C9.08724 0 10.0997 0.244261 10.9932 0.7299C11.8837 1.21844 12.5757 1.91384 13.0664 2.81617C13.5372 1.96553 14.2236 1.2845 15.1255 0.770118C16.0245 0.255755 17.0002 0 18.0496 0C19.8336 0 21.2715 0.554609 22.3635 1.66098H22.3607Z" fill="#202020"/>
</svg>
