<svg width="92" height="30" viewBox="0 0 92 30" fill="none" xmlns="http://www.w3.org/2000/svg">
<mask id="mask0_0_24" style="mask-type:luminance" maskUnits="userSpaceOnUse" x="0" y="-1" width="92" height="31">
<path d="M92 -0.00146484H0V29.9985H92V-0.00146484Z" fill="white"/>
</mask>
<g mask="url(#mask0_0_24)">
<path d="M1.28063 13.9325C2.13439 12.3485 3.31621 11.1227 4.82609 10.2512C6.33597 9.3796 8.06719 8.9458 10.0158 8.9458C12.5257 8.9458 14.6047 9.57859 16.249 10.8402C17.6324 11.9028 18.6324 13.3315 19.249 15.1145C19.4269 15.6239 19.0316 16.1572 18.498 16.1572H14.5731C14.2648 16.1572 13.9842 15.9742 13.8577 15.6876C13.5573 15.023 13.1265 14.4857 12.5573 14.0758C11.8617 13.5743 11.004 13.3196 9.98024 13.3196C8.51779 13.3196 7.35968 13.8529 6.50593 14.9195C5.65217 15.9861 5.2253 17.5024 5.2253 19.4645C5.2253 21.4265 5.65217 22.907 6.50593 23.9736C7.35968 25.0402 8.51779 25.5735 9.98024 25.5735C11.8696 25.5735 13.1621 24.7975 13.8538 23.2413C13.9802 22.9588 14.2609 22.7757 14.5692 22.7757H18.4862C19.0277 22.7757 19.419 23.313 19.2372 23.8264C18.6166 25.5496 17.6166 26.9545 16.2292 28.041C14.5731 29.3424 12.502 29.9911 10.0158 29.9911C8.06719 29.9911 6.33597 29.5573 4.82609 28.6858C3.31621 27.8142 2.13439 26.5884 1.28063 25.0044C0.426877 23.4204 0 21.5738 0 19.4645C0 17.3552 0.426877 15.5085 1.28063 13.9245V13.9325Z" fill="white"/>
<path d="M23.2292 13.9166C24.0435 12.3207 25.1542 11.0949 26.5573 10.2352C27.9565 9.37562 29.5257 8.9458 31.253 8.9458C32.7628 8.9458 34.087 9.25224 35.2174 9.86514C36.3518 10.478 37.2569 11.2501 37.9407 12.1854V10.0721C37.9407 9.63431 38.2964 9.27612 38.7312 9.27612H42.3043C42.7391 9.27612 43.0949 9.63431 43.0949 10.0721V28.8728C43.0949 29.3106 42.7391 29.6688 42.3043 29.6688H38.7312C38.2964 29.6688 37.9407 29.3106 37.9407 28.8728V26.6879C37.2806 27.643 36.3755 28.435 35.2174 29.0599C34.0593 29.6847 32.7273 29.9991 31.2134 29.9991C29.5059 29.9991 27.9526 29.5573 26.5534 28.6738C25.1502 27.7903 24.0435 26.5446 23.2253 24.9367C22.4071 23.3289 22 21.4822 22 19.3968C22 17.3114 22.4071 15.5085 23.2253 13.9126L23.2292 13.9166ZM37.2134 16.2527C36.7273 15.3573 36.0672 14.6688 35.2372 14.1912C34.4071 13.7136 33.5178 13.4748 32.5692 13.4748C31.6206 13.4748 30.7431 13.7096 29.9368 14.1753C29.1344 14.6409 28.4822 15.3215 27.9802 16.2169C27.4822 17.1124 27.2292 18.175 27.2292 19.4008C27.2292 20.6266 27.4783 21.7011 27.9802 22.6205C28.4783 23.5398 29.1383 24.2443 29.9526 24.7378C30.7668 25.2273 31.6403 25.474 32.5652 25.474C33.4901 25.474 34.4032 25.2352 35.2332 24.7577C36.0632 24.2801 36.7194 23.5916 37.2095 22.6961C37.6957 21.8006 37.9407 20.7261 37.9407 19.4764C37.9407 18.2267 37.6957 17.1522 37.2095 16.2567L37.2134 16.2527Z" fill="white"/>
<path d="M79.2688 11.2813C80.7905 12.8135 81.5534 14.9547 81.5534 17.7047V28.8721C81.5534 29.3099 81.1976 29.6681 80.7628 29.6681H77.2253C76.7905 29.6681 76.4348 29.3099 76.4348 28.8721V18.4052C76.4348 16.8093 76.0316 15.5874 75.2293 14.7437C74.4229 13.896 73.3281 13.4742 71.9407 13.4742C70.5534 13.4742 69.4506 13.896 68.6324 14.7437C67.8142 15.5914 67.4071 16.8132 67.4071 18.4052V28.8721C67.4071 29.3099 67.0514 29.6681 66.6166 29.6681H63.0791C62.6443 29.6681 62.2885 29.3099 62.2885 28.8721V18.4052C62.2885 16.8093 61.8854 15.5874 61.083 14.7437C60.2767 13.896 59.1818 13.4742 57.7945 13.4742C56.4071 13.4742 55.2648 13.896 54.4506 14.7437C53.6324 15.5914 53.2253 16.8132 53.2253 18.4052V28.8721C53.2253 29.3099 52.8696 29.6681 52.4348 29.6681H48.8972C48.4625 29.6681 48.1067 29.3099 48.1067 28.8721V10.0714C48.1067 9.63365 48.4625 9.27547 48.8972 9.27547H52.4348C52.8696 9.27547 53.2253 9.63365 53.2253 10.0714V11.7429C53.8854 10.8833 54.7312 10.2107 55.7668 9.71723C56.8024 9.22771 57.9407 8.98096 59.1858 8.98096C60.7708 8.98096 62.1818 9.31925 63.4269 9.99184C64.668 10.6684 65.6324 11.6315 66.3162 12.8812C66.9723 11.7031 67.9289 10.7599 69.1858 10.0475C70.4387 9.33517 71.7984 8.98096 73.2609 8.98096C75.747 8.98096 77.751 9.74907 79.2727 11.2813H79.2688Z" fill="white"/>
<path d="M91.5336 10.0152V28.8716C91.5336 29.3094 91.1779 29.6676 90.7431 29.6676H87.2056C86.7708 29.6676 86.415 29.3094 86.415 28.8716V10.0152C86.415 9.57743 86.7708 9.21924 87.2056 9.21924H90.7431C91.1779 9.21924 91.5336 9.57743 91.5336 10.0152Z" fill="white"/>
<path d="M91.7685 2.49009L89.527 0.233134C89.2183 -0.0777112 88.7178 -0.0777112 88.4091 0.233134L86.1676 2.49009C85.8589 2.80094 85.8589 3.30492 86.1676 3.61576L88.4091 5.87272C88.7178 6.18357 89.2183 6.18357 89.527 5.87272L91.7685 3.61576C92.0772 3.30492 92.0772 2.80094 91.7685 2.49009Z" fill="#FFFF50"/>
</g>
</svg>
