<svg width="64" height="21" viewBox="0 0 64 21" fill="none" xmlns="http://www.w3.org/2000/svg">
<path d="M0.89087 9.75264C1.48479 8.64384 2.30692 7.78578 3.35727 7.17574C4.40761 6.5656 5.61194 6.26194 6.96749 6.26194C8.7135 6.26194 10.1598 6.70489 11.3036 7.58803C12.266 8.33185 12.9616 9.33194 13.3906 10.58C13.5143 10.9366 13.2393 11.3099 12.8681 11.3099H10.1378C9.9233 11.3099 9.7281 11.1818 9.6401 10.9812C9.43113 10.516 9.13144 10.1399 8.73548 9.85295C8.25159 9.5019 7.65493 9.32361 6.94275 9.32361C5.9254 9.32361 5.11976 9.69692 4.52585 10.4435C3.93193 11.1902 3.63498 12.2516 3.63498 13.625C3.63498 14.9984 3.93193 16.0348 4.52585 16.7814C5.11976 17.528 5.9254 17.9013 6.94275 17.9013C8.25708 17.9013 9.15621 17.3581 9.63739 16.2688C9.72532 16.071 9.92059 15.9429 10.1351 15.9429H12.8599C13.2366 15.9429 13.5088 16.319 13.3823 16.6783C12.9506 17.8846 12.255 18.868 11.2898 19.6286C10.1378 20.5395 8.69701 20.9936 6.96749 20.9936C5.61194 20.9936 4.40761 20.69 3.35727 20.0799C2.30692 19.4698 1.48479 18.6117 0.89087 17.5029C0.296957 16.3941 0 15.1015 0 13.625C0 12.1485 0.296957 10.8558 0.89087 9.74704V9.75264Z" fill="#202020"/>
<path d="M16.1595 9.74151C16.7259 8.62438 17.4986 7.76632 18.4747 7.16454C19.448 6.56281 20.5396 6.26194 21.7412 6.26194C22.7915 6.26194 23.7127 6.47645 24.4991 6.90547C25.2882 7.3345 25.9178 7.87496 26.3935 8.52967V7.05037C26.3935 6.74389 26.641 6.49316 26.9434 6.49316H29.4291C29.7315 6.49316 29.979 6.74389 29.979 7.05037V20.2108C29.979 20.5173 29.7315 20.768 29.4291 20.768H26.9434C26.641 20.768 26.3935 20.5173 26.3935 20.2108V18.6814C25.9343 19.35 25.3047 19.9043 24.4991 20.3418C23.6934 20.7791 22.7668 20.9992 21.7137 20.9992C20.5259 20.9992 19.4453 20.69 18.472 20.0715C17.4958 19.4531 16.7259 18.5811 16.1568 17.4555C15.5876 16.3301 15.3044 15.0374 15.3044 13.5776C15.3044 12.1179 15.5876 10.8558 16.1568 9.73871L16.1595 9.74151ZM25.8876 11.3768C25.5494 10.75 25.0902 10.268 24.5128 9.93373C23.9354 9.59941 23.3167 9.43225 22.6568 9.43225C21.9969 9.43225 21.3865 9.59661 20.8256 9.9226C20.2674 10.2485 19.8137 10.7249 19.4645 11.3517C19.1181 11.9786 18.9421 12.7224 18.9421 13.5804C18.9421 14.4385 19.1154 15.1906 19.4645 15.8342C19.811 16.4777 20.2701 16.9709 20.8366 17.3163C21.403 17.659 22.0107 17.8317 22.6541 17.8317C23.2975 17.8317 23.9327 17.6645 24.5101 17.3302C25.0874 16.9959 25.5439 16.514 25.8849 15.8871C26.2231 15.2603 26.3935 14.5081 26.3935 13.6334C26.3935 12.7586 26.2231 12.0064 25.8849 11.3796L25.8876 11.3768Z" fill="#202020"/>
<path d="M55.1433 7.89686C56.2019 8.96939 56.7326 10.4682 56.7326 12.3932V20.2104C56.7326 20.5168 56.4851 20.7676 56.1827 20.7676H53.7218C53.4193 20.7676 53.1719 20.5168 53.1719 20.2104V12.8836C53.1719 11.7664 52.8914 10.9111 52.3333 10.3205C51.7723 9.72714 51.0107 9.43188 50.0456 9.43188C49.0805 9.43188 48.3133 9.72714 47.7441 10.3205C47.175 10.9139 46.8918 11.7692 46.8918 12.8836V20.2104C46.8918 20.5168 46.6443 20.7676 46.3419 20.7676H43.881C43.5785 20.7676 43.331 20.5168 43.331 20.2104V12.8836C43.331 11.7664 43.0506 10.9111 42.4924 10.3205C41.9315 9.72714 41.1698 9.43188 40.2048 9.43188C39.2396 9.43188 38.445 9.72714 37.8786 10.3205C37.3094 10.9139 37.0262 11.7692 37.0262 12.8836V20.2104C37.0262 20.5168 36.7788 20.7676 36.4763 20.7676H34.0154C33.713 20.7676 33.4654 20.5168 33.4654 20.2104V7.04993C33.4654 6.74348 33.713 6.49275 34.0154 6.49275H36.4763C36.7788 6.49275 37.0262 6.74348 37.0262 7.04993V8.21998C37.4854 7.61826 38.0738 7.14744 38.7942 6.80198C39.5146 6.45932 40.3065 6.2866 41.1726 6.2866C42.2752 6.2866 43.2568 6.5234 44.1229 6.99421C44.9863 7.46783 45.6572 8.142 46.1329 9.01678C46.5893 8.19212 47.2548 7.53188 48.1291 7.0332C49.0007 6.53454 49.9466 6.2866 50.964 6.2866C52.6934 6.2866 54.0875 6.82427 55.1461 7.89686H55.1433Z" fill="#202020"/>
<path d="M63.6753 7.01054V20.21C63.6753 20.5164 63.4278 20.7672 63.1254 20.7672H60.6645C60.362 20.7672 60.1145 20.5164 60.1145 20.21V7.01054C60.1145 6.70408 60.362 6.45334 60.6645 6.45334H63.1254C63.4278 6.45334 63.6753 6.70408 63.6753 7.01054Z" fill="#202020"/>
<path d="M63.8388 1.74306L62.2795 0.163193C62.0648 -0.0543976 61.7166 -0.0543976 61.5019 0.163193L59.9426 1.74306C59.7278 1.96065 59.7278 2.31344 59.9426 2.53103L61.5019 4.11089C61.7166 4.32849 62.0648 4.32849 62.2795 4.11089L63.8388 2.53103C64.0536 2.31344 64.0536 1.96065 63.8388 1.74306Z" fill="#202020"/>
</svg>
