<svg width="122" height="21" viewBox="0 0 122 21" fill="none" xmlns="http://www.w3.org/2000/svg">
<g clip-path="url(#clip0_24_5007)">
<path d="M15.45 3.5H12.15C11.5425 3.5 11.05 4.02234 11.05 4.66667V8.16667H15.45C15.5751 8.16373 15.6938 8.22547 15.7681 8.33222C15.8425 8.43897 15.8634 8.57733 15.824 8.70333L15.01 11.27C14.935 11.5055 14.7274 11.6648 14.493 11.6667H11.05V20.4167C11.05 20.7388 10.8037 21 10.5 21H7.75C7.44625 21 7.2 20.7388 7.2 20.4167V11.6667H5.55C5.24625 11.6667 5 11.4054 5 11.0833V8.75C5 8.42788 5.24625 8.16667 5.55 8.16667H7.2V4.66667C7.2 2.08934 9.16999 0 11.6 0H15.45C15.7537 0 16 0.26117 16 0.583333V2.91667C16 3.23883 15.7537 3.5 15.45 3.5Z" fill="#202020"/>
</g>
<g clip-path="url(#clip1_24_5007)">
<path d="M58.4 1.87439C61.1786 1.87439 61.5047 1.88678 62.603 1.93632C63.6186 1.98174 64.1677 2.15101 64.5351 2.29551C65.0223 2.48543 65.3691 2.70838 65.7325 3.0717C66.0958 3.43501 66.3228 3.78182 66.5086 4.269C66.649 4.63644 66.8224 5.18555 66.8678 6.20119C66.9174 7.2994 66.9298 7.62557 66.9298 10.4041C66.9298 13.1827 66.9174 13.5089 66.8678 14.6071C66.8224 15.6227 66.6531 16.1718 66.5086 16.5393C66.3187 17.0264 66.0958 17.3732 65.7325 17.7366C65.3691 18.0999 65.0223 18.327 64.5351 18.5127C64.1677 18.6531 63.6186 18.8265 62.603 18.8719C61.5047 18.9215 61.1786 18.9339 58.4 18.9339C55.6214 18.9339 55.2953 18.9215 54.1971 18.8719C53.1814 18.8265 52.6323 18.6572 52.2649 18.5127C51.7777 18.3228 51.4309 18.0999 51.0676 17.7366C50.7042 17.3732 50.4772 17.0264 50.2914 16.5393C50.151 16.1718 49.9776 15.6227 49.9322 14.6071C49.8826 13.5089 49.8703 13.1827 49.8703 10.4041C49.8703 7.62557 49.8826 7.2994 49.9322 6.20119C49.9776 5.18555 50.1469 4.63644 50.2914 4.269C50.4813 3.78182 50.7042 3.43501 51.0676 3.0717C51.4309 2.70838 51.7777 2.4813 52.2649 2.29551C52.6323 2.15514 53.1814 1.98174 54.1971 1.93632C55.2953 1.88265 55.6256 1.87439 58.4 1.87439ZM58.4 0C55.576 0 55.221 0.0123859 54.1104 0.0619293C53.0039 0.111473 52.2484 0.289004 51.5878 0.544978C50.9024 0.80921 50.3244 1.1684 49.7464 1.74641C49.1684 2.32441 48.8133 2.90655 48.545 3.58777C48.289 4.24835 48.1115 5.00389 48.0619 6.11449C48.0124 7.22096 48 7.57602 48 10.4C48 13.224 48.0124 13.579 48.0619 14.6896C48.1115 15.7961 48.289 16.5516 48.545 17.2164C48.8092 17.9017 49.1684 18.4797 49.7464 19.0577C50.3244 19.6357 50.9065 19.9908 51.5878 20.2592C52.2484 20.5151 53.0039 20.6927 54.1145 20.7422C55.2251 20.7917 55.576 20.8041 58.4041 20.8041C61.2322 20.8041 61.5832 20.7917 62.6938 20.7422C63.8003 20.6927 64.5558 20.5151 65.2205 20.2592C65.9059 19.9949 66.4839 19.6357 67.0619 19.0577C67.6399 18.4797 67.9949 17.8976 68.2633 17.2164C68.5193 16.5558 68.6968 15.8002 68.7463 14.6896C68.7959 13.579 68.8083 13.2281 68.8083 10.4C68.8083 7.57189 68.7959 7.22096 68.7463 6.11036C68.6968 5.00389 68.5193 4.24835 68.2633 3.58364C67.9991 2.89829 67.6399 2.32029 67.0619 1.74228C66.4839 1.16427 65.9017 0.80921 65.2205 0.54085C64.5599 0.284875 63.8044 0.107344 62.6938 0.0578007C61.5791 0.0123859 61.224 0 58.4 0Z" fill="#202020"/>
<path d="M58.4 5.06152C55.4522 5.06152 53.0576 7.452 53.0576 10.404C53.0576 13.3559 55.4481 15.7464 58.4 15.7464C61.352 15.7464 63.7425 13.3559 63.7425 10.404C63.7425 7.452 61.352 5.06152 58.4 5.06152ZM58.4 13.8679C56.4844 13.8679 54.932 12.3155 54.932 10.3998C54.932 8.48415 56.4844 6.93179 58.4 6.93179C60.3157 6.93179 61.8681 8.48415 61.8681 10.3998C61.8681 12.3155 60.3157 13.8679 58.4 13.8679Z" fill="#202020"/>
<path d="M63.9529 6.09379C64.6416 6.09379 65.1998 5.53556 65.1998 4.84694C65.1998 4.15833 64.6416 3.6001 63.9529 3.6001C63.2643 3.6001 62.7061 4.15833 62.7061 4.84694C62.7061 5.53556 63.2643 6.09379 63.9529 6.09379Z" fill="#202020"/>
</g>
<g clip-path="url(#clip2_24_5007)">
<path d="M112.577 9.02804C112.059 9.02804 111.637 8.61264 111.637 8.10191C111.637 7.59117 112.059 7.17578 112.577 7.17578C113.094 7.17578 113.516 7.59117 113.516 8.10191C113.516 8.61264 113.101 9.02804 112.577 9.02804Z" fill="#202020"/>
<path d="M105.256 8.48359C105.406 8.83089 105.753 9.06923 106.155 9.06923C106.7 9.06923 107.136 8.64022 107.136 8.10224C107.136 7.56427 106.7 7.13525 106.155 7.13525C105.753 7.13525 105.406 7.37359 105.256 7.72089C105.202 7.83666 105.174 7.96604 105.174 8.10224C105.174 8.23844 105.208 8.36782 105.256 8.48359Z" fill="#202020"/>
<path d="M117.044 8.98731C116.492 8.98731 116.05 8.5583 116.05 8.03394C116.05 7.50959 116.499 7.08057 117.044 7.08057C117.432 7.08057 117.773 7.29849 117.936 7.61174C118.004 7.74112 118.038 7.88413 118.038 8.03394C118.038 8.18376 117.997 8.33357 117.936 8.45615C117.773 8.77621 117.432 8.98731 117.044 8.98731Z" fill="#202020"/>
<path fill-rule="evenodd" clip-rule="evenodd" d="M118.431 0H104.562C102.599 0 101 1.61948 101 3.5928V12.289C101 14.2691 102.606 15.8818 104.562 15.8818H109.459L111.132 18.801C111.281 19.0663 111.658 19.0663 111.814 18.801L113.487 15.8818H118.438C120.401 15.8818 122 14.2623 122 12.289V3.59961C122 1.61948 120.395 0 118.431 0ZM112.577 6.16804C111.494 6.16804 110.616 7.03288 110.616 8.10202C110.616 9.17116 111.494 10.036 112.577 10.036C113.66 10.036 114.538 9.17116 114.538 8.10202C114.538 7.03288 113.666 6.16804 112.577 6.16804ZM105.249 6.61071C105.556 6.33151 105.951 6.16808 106.373 6.16808C107.353 6.16808 108.137 7.03973 108.137 8.10887C108.137 9.17801 107.347 10.0429 106.373 10.0429C105.944 10.0429 105.556 9.87261 105.249 9.60022V9.94752H104.16V5.01041H105.249V6.61071ZM117.936 6.24964V6.55608C117.63 6.31774 117.248 6.17473 116.84 6.17473C115.839 6.17473 115.028 7.01233 115.028 8.04061C115.028 9.06889 115.839 9.90649 116.84 9.90649C117.255 9.90649 117.636 9.76349 117.936 9.52515V10.0427C117.936 10.0427 117.827 10.5534 117.064 10.5534V11.5136C117.064 11.5136 117.888 11.6089 118.624 10.8735C118.624 10.8735 118.964 10.5126 119.039 10.0359V6.24964H117.936ZM108.259 5.90242V4.915C108.259 4.915 108.981 4.81966 109.621 5.57555C109.621 5.57555 109.914 5.94328 109.982 6.43358V9.94742H108.858V6.46082C108.763 5.97052 108.259 5.90242 108.259 5.90242Z" fill="#202020"/>
</g>
<defs>
<clipPath id="clip0_24_5007">
<rect width="21" height="21" fill="white"/>
</clipPath>
<clipPath id="clip1_24_5007">
<rect width="21" height="21" fill="white" transform="translate(48)"/>
</clipPath>
<clipPath id="clip2_24_5007">
<rect width="21" height="21" fill="white" transform="translate(101)"/>
</clipPath>
</defs>
</svg>
