<svg width="100" height="32" viewBox="0 0 100 32" fill="none" xmlns="http://www.w3.org/2000/svg">
<mask id="mask0_92_11041" style="mask-type:luminance" maskUnits="userSpaceOnUse" x="0" y="-1" width="100" height="33">
<path d="M100 -0.00219727H0V31.9978H100V-0.00219727Z" fill="white"/>
</mask>
<g mask="url(#mask0_92_11041)">
<path d="M1.39199 14.86C2.31999 13.1704 3.60457 11.8628 5.24574 10.9331C6.88693 10.0035 8.76869 9.54077 10.8867 9.54077C13.6149 9.54077 15.8747 10.2157 17.662 11.5615C19.1656 12.6949 20.2527 14.2189 20.9229 16.1208C21.1162 16.6641 20.6866 17.233 20.1066 17.233H15.8403C15.5052 17.233 15.2002 17.0377 15.0628 16.7321C14.7362 16.0232 14.2679 15.45 13.6493 15.0128C12.8931 14.4779 11.9609 14.2062 10.8481 14.2062C9.25847 14.2062 7.99966 14.7751 7.07166 15.9128C6.14367 17.0505 5.67967 18.6679 5.67967 20.7608C5.67967 22.8536 6.14367 24.4328 7.07166 25.5705C7.99966 26.7082 9.25847 27.277 10.8481 27.277C12.9017 27.277 14.3066 26.4492 15.0584 24.7893C15.196 24.488 15.501 24.2927 15.8361 24.2927H20.0936C20.6822 24.2927 21.1076 24.8658 20.91 25.4135C20.2354 27.2515 19.1485 28.7501 17.6405 29.909C15.8403 31.2972 13.5891 31.9891 10.8867 31.9891C8.76869 31.9891 6.88693 31.5264 5.24574 30.5967C3.60457 29.6671 2.31999 28.3596 1.39199 26.67C0.463997 24.9804 0 23.0107 0 20.7608C0 18.5107 0.463997 16.541 1.39199 14.8514V14.86Z" fill="#171717"/>
<path d="M25.2491 14.843C26.1343 13.1407 27.3415 11.8332 28.8667 10.9162C30.3876 9.99925 32.0932 9.54077 33.9706 9.54077C35.6118 9.54077 37.0511 9.86764 38.2798 10.5214C39.5128 11.1752 40.4967 11.9987 41.2399 12.9963V10.7421C41.2399 10.2752 41.6266 9.89311 42.0991 9.89311H45.983C46.4556 9.89311 46.8422 10.2752 46.8422 10.7421V30.7963C46.8422 31.2633 46.4556 31.6453 45.983 31.6453H42.0991C41.6266 31.6453 41.2399 31.2633 41.2399 30.7963V28.4657C40.5224 29.4845 39.5386 30.3293 38.2798 30.9957C37.021 31.6623 35.5731 31.9977 33.9277 31.9977C32.0717 31.9977 30.3832 31.5264 28.8623 30.584C27.3372 29.6416 26.1343 28.3129 25.2449 26.5978C24.3555 24.8828 23.9131 22.913 23.9131 20.6885C23.9131 18.4641 24.3555 16.541 25.2449 14.8387L25.2491 14.843ZM40.4494 17.3348C39.921 16.3797 39.2035 15.6453 38.3013 15.1359C37.399 14.6265 36.4323 14.3717 35.4013 14.3717C34.3702 14.3717 33.4164 14.6222 32.54 15.1189C31.6679 15.6156 30.9589 16.3416 30.4133 17.2967C29.872 18.2519 29.597 19.3853 29.597 20.6928C29.597 22.0003 29.8677 23.1465 30.4133 24.1272C30.9547 25.1077 31.6721 25.8591 32.5571 26.3855C33.4422 26.9077 34.3917 27.1709 35.397 27.1709C36.4023 27.1709 37.3948 26.9162 38.297 26.4067C39.1991 25.8974 39.9123 25.1629 40.4451 24.2078C40.9735 23.2526 41.2399 22.1065 41.2399 20.7735C41.2399 19.4404 40.9735 18.2943 40.4451 17.3391L40.4494 17.3348Z" fill="#171717"/>
<path d="M86.1618 12.0328C87.8159 13.6672 88.645 15.9511 88.645 18.8845V30.7964C88.645 31.2634 88.2583 31.6455 87.7858 31.6455H83.9407C83.468 31.6455 83.0814 31.2634 83.0814 30.7964V19.6316C83.0814 17.9293 82.6431 16.6261 81.771 15.7261C80.8946 14.8219 79.7045 14.3719 78.1965 14.3719C76.6885 14.3719 75.4898 14.8219 74.6006 15.7261C73.7112 16.6303 73.2687 17.9336 73.2687 19.6316V30.7964C73.2687 31.2634 72.8821 31.6455 72.4094 31.6455H68.5643C68.0916 31.6455 67.705 31.2634 67.705 30.7964V19.6316C67.705 17.9293 67.2668 16.6261 66.3946 15.7261C65.5182 14.8219 64.3281 14.3719 62.8201 14.3719C61.3122 14.3719 60.0706 14.8219 59.1855 15.7261C58.2962 16.6303 57.8537 17.9336 57.8537 19.6316V30.7964C57.8537 31.2634 57.4671 31.6455 56.9944 31.6455H53.1493C52.6766 31.6455 52.29 31.2634 52.29 30.7964V10.7423C52.29 10.2753 52.6766 9.89325 53.1493 9.89325H56.9944C57.4671 9.89325 57.8537 10.2753 57.8537 10.7423V12.5253C58.5711 11.6082 59.4906 10.8909 60.6162 10.3645C61.7418 9.8423 62.9791 9.5791 64.3325 9.5791C66.0553 9.5791 67.589 9.93994 68.9424 10.6574C70.2914 11.379 71.3397 12.4064 72.0829 13.7393C72.7961 12.4828 73.8358 11.4767 75.2021 10.7168C76.564 9.95693 78.0418 9.5791 79.6314 9.5791C82.3339 9.5791 84.5121 10.3984 86.1661 12.0328H86.1618Z" fill="#171717"/>
<path d="M99.4928 10.6828V30.7964C99.4928 31.2633 99.1062 31.6453 98.6336 31.6453H94.7885C94.3158 31.6453 93.9292 31.2633 93.9292 30.7964V10.6828C93.9292 10.2158 94.3158 9.83374 94.7885 9.83374H98.6336C99.1062 9.83374 99.4928 10.2158 99.4928 10.6828Z" fill="#171717"/>
<path d="M99.7484 2.6561L97.3119 0.248676C96.9764 -0.0828919 96.4324 -0.0828919 96.0968 0.248676L93.6603 2.6561C93.3248 2.98768 93.3248 3.52524 93.6603 3.85682L96.0968 6.26424C96.4324 6.59582 96.9764 6.59582 97.3119 6.26424L99.7484 3.85682C100.084 3.52524 100.084 2.98768 99.7484 2.6561Z" fill="#FDF158"/>
</g>
</svg>
