<svg width="34" height="21" viewBox="0 0 34 21" fill="none" xmlns="http://www.w3.org/2000/svg">
<path d="M31.6333 2.33516C33.178 3.89053 33.9524 6.06411 33.9524 8.85569V20.1919C33.9524 20.6364 33.5913 21 33.1499 21H29.5589C29.1175 21 28.7564 20.6364 28.7564 20.1919V9.56678C28.7564 7.94675 28.3471 6.70637 27.5327 5.84992C26.7141 4.9894 25.6028 4.56122 24.1944 4.56122C22.7861 4.56122 21.6666 4.9894 20.8361 5.84992C20.0055 6.71044 19.5922 7.95071 19.5922 9.56678V20.1919C19.5922 20.6364 19.2312 21 18.7898 21H15.1988C14.7574 21 14.3962 20.6364 14.3962 20.1919V9.56678C14.3962 7.94675 13.987 6.70637 13.1725 5.84992C12.354 4.9894 11.2426 4.56122 9.83428 4.56122C8.42591 4.56122 7.26633 4.9894 6.43982 5.84992C5.60925 6.71044 5.196 7.95071 5.196 9.56678V20.1919C5.196 20.6364 4.83492 21 4.39354 21H0.802454C0.361181 21 0 20.6364 0 20.1919V1.10697C0 0.662559 0.361181 0.298963 0.802454 0.298963H4.39354C4.83492 0.298963 5.196 0.662559 5.196 1.10697V2.80374C5.86608 1.93115 6.72467 1.24838 7.77593 0.747403C8.82718 0.250481 9.98269 0 11.2466 0C12.8556 0 14.2879 0.343406 15.5519 1.02617C16.8117 1.713 17.7907 2.69066 18.4848 3.95926C19.1509 2.76334 20.1219 1.80588 21.3978 1.08271C22.6697 0.359566 24.0499 0 25.5346 0C28.0582 0 30.0925 0.779724 31.6372 2.33516H31.6333Z" fill="white"/>
</svg>
