<svg width="31" height="10" viewBox="0 0 31 10" fill="none" xmlns="http://www.w3.org/2000/svg">
<g clip-path="url(#clip0_92_11793)">
<path d="M0.431517 4.64467C0.719197 4.11667 1.11742 3.70807 1.62618 3.41757C2.13495 3.12702 2.71829 2.98242 3.37489 2.98242C4.22062 2.98242 4.92115 3.19335 5.47521 3.6139C5.94135 3.9681 6.27831 4.44433 6.48608 5.03867C6.54602 5.20847 6.41282 5.38623 6.23302 5.38623H4.9105C4.80662 5.38623 4.71207 5.32523 4.66944 5.2297C4.56822 5.00817 4.42306 4.82907 4.23126 4.69243C3.99688 4.52527 3.70787 4.44037 3.36291 4.44037C2.87012 4.44037 2.47989 4.61813 2.19222 4.97366C1.90454 5.3292 1.7607 5.83463 1.7607 6.48867C1.7607 7.14266 1.90454 7.63617 2.19222 7.9917C2.47989 8.34723 2.87012 8.525 3.36291 8.525C3.99954 8.525 4.43506 8.26633 4.66813 7.7476C4.71072 7.65343 4.8053 7.5924 4.90919 7.5924H6.22905C6.41151 7.5924 6.54336 7.7715 6.4821 7.94263C6.27298 8.51703 5.93603 8.98533 5.46853 9.3475C4.9105 9.7813 4.21263 9.99753 3.37489 9.99753C2.71829 9.99753 2.13495 9.85293 1.62618 9.56243C1.11742 9.2719 0.719197 8.8633 0.431517 8.3353C0.143839 7.8073 0 7.19176 0 6.48867C0 5.78557 0.143839 5.17 0.431517 4.642V4.64467Z" fill="#202020"/>
<path d="M7.82727 4.63937C8.10166 4.1074 8.47591 3.6988 8.9487 3.41223C9.42017 3.1257 9.94892 2.98242 10.5309 2.98242C11.0397 2.98242 11.4859 3.08457 11.8668 3.28887C12.249 3.49316 12.554 3.75053 12.7844 4.0623V3.35787C12.7844 3.21193 12.9043 3.09253 13.0508 3.09253H14.2548C14.4013 3.09253 14.5211 3.21193 14.5211 3.35787V9.62476C14.5211 9.7707 14.4013 9.8901 14.2548 9.8901H13.0508C12.9043 9.8901 12.7844 9.7707 12.7844 9.62476V8.89647C12.562 9.21483 12.257 9.47883 11.8668 9.68713C11.4765 9.8954 11.0277 10.0002 10.5176 10.0002C9.94225 10.0002 9.41885 9.85293 8.94738 9.55843C8.47457 9.26393 8.10166 8.8487 7.82596 8.31273C7.55026 7.7768 7.41309 7.16123 7.41309 6.4661C7.41309 5.77097 7.55026 5.17 7.82596 4.63803L7.82727 4.63937ZM12.5393 5.41807C12.3755 5.1196 12.1531 4.8901 11.8734 4.7309C11.5937 4.5717 11.2941 4.4921 10.9744 4.4921C10.6548 4.4921 10.3591 4.57037 10.0874 4.7256C9.81707 4.8808 9.59731 5.10766 9.42815 5.40613C9.26035 5.70463 9.1751 6.05883 9.1751 6.46743C9.1751 6.87603 9.25903 7.2342 9.42815 7.54067C9.59599 7.8471 9.81838 8.08193 10.0928 8.24643C10.3671 8.4096 10.6614 8.49183 10.9731 8.49183C11.2848 8.49183 11.5924 8.41223 11.8721 8.25307C12.1518 8.09386 12.3729 7.86437 12.538 7.56587C12.7019 7.26736 12.7844 6.9092 12.7844 6.49263C12.7844 6.07607 12.7019 5.7179 12.538 5.4194L12.5393 5.41807Z" fill="#202020"/>
<path d="M26.7102 3.76093C27.223 4.27167 27.48 4.9854 27.48 5.90207V9.62453C27.48 9.77047 27.3602 9.88987 27.2136 9.88987H26.0217C25.8752 9.88987 25.7553 9.77047 25.7553 9.62453V6.13557C25.7553 5.6036 25.6194 5.1963 25.3491 4.91507C25.0774 4.6325 24.7085 4.4919 24.241 4.4919C23.7735 4.4919 23.4019 4.6325 23.1262 4.91507C22.8505 5.19763 22.7134 5.6049 22.7134 6.13557V9.62453C22.7134 9.77047 22.5935 9.88987 22.447 9.88987H21.255C21.1085 9.88987 20.9886 9.77047 20.9886 9.62453V6.13557C20.9886 5.6036 20.8528 5.1963 20.5824 4.91507C20.3107 4.6325 19.9418 4.4919 19.4743 4.4919C19.0068 4.4919 18.6219 4.6325 18.3476 4.91507C18.0719 5.19763 17.9347 5.6049 17.9347 6.13557V9.62453C17.9347 9.77047 17.8149 9.88987 17.6683 9.88987H16.4763C16.3299 9.88987 16.21 9.77047 16.21 9.62453V3.35763C16.21 3.2117 16.3299 3.09231 16.4763 3.09231H17.6683C17.8149 3.09231 17.9347 3.2117 17.9347 3.35763V3.9148C18.1571 3.62827 18.4421 3.40407 18.7911 3.23956C19.14 3.07639 19.5236 2.99414 19.9431 2.99414C20.4772 2.99414 20.9527 3.1069 21.3722 3.3311C21.7904 3.55663 22.1154 3.87767 22.3458 4.29423C22.5668 3.90153 22.8892 3.58713 23.3127 3.34967C23.7349 3.11221 24.193 2.99414 24.6858 2.99414C25.5235 2.99414 26.1988 3.25018 26.7115 3.76093H26.7102Z" fill="#202020"/>
<path d="M30.8429 3.33882V9.62429C30.8429 9.77022 30.7231 9.88962 30.5765 9.88962H29.3846C29.2381 9.88962 29.1182 9.77022 29.1182 9.62429V3.33882C29.1182 3.19288 29.2381 3.07349 29.3846 3.07349H30.5765C30.7231 3.07349 30.8429 3.19288 30.8429 3.33882Z" fill="#202020"/>
<path d="M30.9218 0.83052L30.1665 0.0781995C30.0625 -0.0254155 29.8939 -0.0254155 29.7898 0.0781995L29.0346 0.83052C28.9305 0.934136 28.9305 1.10213 29.0346 1.20574L29.7898 1.95806C29.8939 2.06168 30.0625 2.06168 30.1665 1.95806L30.9218 1.20574C31.0258 1.10213 31.0258 0.934136 30.9218 0.83052Z" fill="#202020"/>
</g>
<defs>
<clipPath id="clip0_92_11793">
<rect width="31" height="10" fill="white"/>
</clipPath>
</defs>
</svg>
