<svg width="92" height="30" viewBox="0 0 92 30" fill="none" xmlns="http://www.w3.org/2000/svg">
<mask id="mask0_0_24" style="mask-type:luminance" maskUnits="userSpaceOnUse" x="0" y="-1" width="92" height="31">
<path d="M92 -0.00158691H0V29.9984H92V-0.00158691Z" fill="white"/>
</mask>
<g mask="url(#mask0_0_24)">
<path d="M1.28063 13.9324C2.13439 12.3484 3.31621 11.1226 4.82609 10.2511C6.33597 9.37948 8.06719 8.94568 10.0158 8.94568C12.5257 8.94568 14.6047 9.57847 16.249 10.8401C17.6324 11.9027 18.6324 13.3314 19.249 15.1144C19.4269 15.6238 19.0316 16.1571 18.498 16.1571H14.5731C14.2648 16.1571 13.9842 15.9741 13.8577 15.6875C13.5573 15.0229 13.1265 14.4856 12.5573 14.0757C11.8617 13.5742 11.004 13.3195 9.98024 13.3195C8.51779 13.3195 7.35968 13.8528 6.50593 14.9194C5.65217 15.986 5.2253 17.5023 5.2253 19.4644C5.2253 21.4264 5.65217 22.9069 6.50593 23.9735C7.35968 25.0401 8.51779 25.5734 9.98024 25.5734C11.8696 25.5734 13.1621 24.7974 13.8538 23.2412C13.9802 22.9587 14.2609 22.7756 14.5692 22.7756H18.4862C19.0277 22.7756 19.419 23.3129 19.2372 23.8263C18.6166 25.5495 17.6166 26.9544 16.2292 28.0409C14.5731 29.3423 12.502 29.991 10.0158 29.991C8.06719 29.991 6.33597 29.5572 4.82609 28.6857C3.31621 27.8141 2.13439 26.5883 1.28063 25.0043C0.426877 23.4203 0 21.5737 0 19.4644C0 17.3551 0.426877 15.5084 1.28063 13.9244V13.9324Z" fill="white"/>
<path d="M23.2292 13.9165C24.0435 12.3206 25.1542 11.0948 26.5573 10.2351C27.9565 9.3755 29.5257 8.94568 31.253 8.94568C32.7628 8.94568 34.087 9.25212 35.2174 9.86502C36.3518 10.4779 37.2569 11.25 37.9407 12.1853V10.072C37.9407 9.63419 38.2964 9.276 38.7312 9.276H42.3043C42.7391 9.276 43.0949 9.63419 43.0949 10.072V28.8727C43.0949 29.3105 42.7391 29.6687 42.3043 29.6687H38.7312C38.2964 29.6687 37.9407 29.3105 37.9407 28.8727V26.6878C37.2806 27.6429 36.3755 28.4349 35.2174 29.0598C34.0593 29.6846 32.7273 29.999 31.2134 29.999C29.5059 29.999 27.9526 29.5572 26.5534 28.6737C25.1502 27.7902 24.0435 26.5445 23.2253 24.9366C22.4071 23.3288 22 21.4821 22 19.3967C22 17.3113 22.4071 15.5084 23.2253 13.9125L23.2292 13.9165ZM37.2134 16.2526C36.7273 15.3572 36.0672 14.6687 35.2372 14.1911C34.4071 13.7135 33.5178 13.4747 32.5692 13.4747C31.6206 13.4747 30.7431 13.7095 29.9368 14.1752C29.1344 14.6408 28.4822 15.3214 27.9802 16.2168C27.4822 17.1123 27.2292 18.1749 27.2292 19.4007C27.2292 20.6265 27.4783 21.701 27.9802 22.6204C28.4783 23.5397 29.1383 24.2442 29.9526 24.7377C30.7668 25.2272 31.6403 25.4739 32.5652 25.4739C33.4901 25.4739 34.4032 25.2351 35.2332 24.7576C36.0632 24.28 36.7194 23.5915 37.2095 22.696C37.6957 21.8005 37.9407 20.726 37.9407 19.4763C37.9407 18.2266 37.6957 17.1521 37.2095 16.2566L37.2134 16.2526Z" fill="white"/>
<path d="M79.2688 11.2812C80.7905 12.8134 81.5534 14.9546 81.5534 17.7046V28.872C81.5534 29.3098 81.1976 29.668 80.7628 29.668H77.2253C76.7905 29.668 76.4348 29.3098 76.4348 28.872V18.4051C76.4348 16.8092 76.0316 15.5873 75.2293 14.7436C74.4229 13.8959 73.3281 13.4741 71.9407 13.4741C70.5534 13.4741 69.4506 13.8959 68.6324 14.7436C67.8142 15.5913 67.4071 16.8131 67.4071 18.4051V28.872C67.4071 29.3098 67.0514 29.668 66.6166 29.668H63.0791C62.6443 29.668 62.2885 29.3098 62.2885 28.872V18.4051C62.2885 16.8092 61.8854 15.5873 61.083 14.7436C60.2767 13.8959 59.1818 13.4741 57.7945 13.4741C56.4071 13.4741 55.2648 13.8959 54.4506 14.7436C53.6324 15.5913 53.2253 16.8131 53.2253 18.4051V28.872C53.2253 29.3098 52.8696 29.668 52.4348 29.668H48.8972C48.4625 29.668 48.1067 29.3098 48.1067 28.872V10.0713C48.1067 9.63352 48.4625 9.27534 48.8972 9.27534H52.4348C52.8696 9.27534 53.2253 9.63352 53.2253 10.0713V11.7428C53.8854 10.8832 54.7312 10.2106 55.7668 9.7171C56.8024 9.22758 57.9407 8.98083 59.1858 8.98083C60.7708 8.98083 62.1818 9.31913 63.4269 9.99172C64.668 10.6683 65.6324 11.6314 66.3162 12.8811C66.9723 11.703 67.9289 10.7598 69.1858 10.0474C70.4387 9.33504 71.7984 8.98083 73.2609 8.98083C75.747 8.98083 77.751 9.74894 79.2727 11.2812H79.2688Z" fill="white"/>
<path d="M91.5336 10.0151V28.8715C91.5336 29.3093 91.1779 29.6675 90.7431 29.6675H87.2056C86.7708 29.6675 86.415 29.3093 86.415 28.8715V10.0151C86.415 9.57731 86.7708 9.21912 87.2056 9.21912H90.7431C91.1779 9.21912 91.5336 9.57731 91.5336 10.0151Z" fill="white"/>
<path d="M91.7685 2.49009L89.527 0.233134C89.2183 -0.0777112 88.7178 -0.0777112 88.4091 0.233134L86.1676 2.49009C85.8589 2.80094 85.8589 3.30492 86.1676 3.61576L88.4091 5.87272C88.7178 6.18357 89.2183 6.18357 89.527 5.87272L91.7685 3.61576C92.0772 3.30492 92.0772 2.80094 91.7685 2.49009Z" fill="#FFFF50"/>
</g>
</svg>
