<svg width="13" height="14" viewBox="0 0 13 14" fill="none" xmlns="http://www.w3.org/2000/svg">
<path d="M4.89068 1.3811C4.95088 1.0186 5.26522 0.752416 5.63307 0.752416H7.3673C7.73515 0.752416 8.0495 1.0186 8.10969 1.3811L8.25215 2.23785C8.29428 2.48799 8.46149 2.69666 8.68353 2.81972C8.73302 2.84647 8.78185 2.87523 8.83067 2.90466C9.04737 3.03575 9.31222 3.07655 9.54965 2.98759L10.3636 2.68262C10.5304 2.61989 10.714 2.61839 10.8818 2.67841C11.0496 2.73842 11.1907 2.85605 11.2799 3.01033L12.1467 4.51316C12.2356 4.66746 12.267 4.84832 12.2352 5.02358C12.2033 5.19883 12.1103 5.3571 11.9728 5.47023L11.3019 6.02334C11.106 6.18386 11.009 6.43333 11.0137 6.68681C11.0148 6.74365 11.0148 6.80051 11.0137 6.85736C11.009 7.11017 11.106 7.35897 11.3013 7.51948L11.9734 8.07326C12.257 8.30735 12.3306 8.71131 12.1473 9.02966L11.2792 10.5325C11.1901 10.6867 11.0493 10.8044 10.8816 10.8645C10.7139 10.9247 10.5304 10.9234 10.3636 10.8609L9.54965 10.5559C9.31222 10.4669 9.04804 10.5077 8.83 10.6388C8.78151 10.6683 8.73246 10.6969 8.68286 10.7244C8.46149 10.8468 8.29428 11.0555 8.25215 11.3056L8.10969 12.1617C8.0495 12.5249 7.73515 12.7911 7.3673 12.7911H5.6324C5.26455 12.7911 4.95021 12.5249 4.89002 12.1624L4.74756 11.3056C4.70609 11.0555 4.53889 10.8468 4.31684 10.7238C4.26725 10.6964 4.21819 10.6681 4.1697 10.6388C3.95234 10.5077 3.68816 10.4669 3.45006 10.5559L2.63611 10.8609C2.46939 10.9234 2.2859 10.9248 2.11825 10.8648C1.9506 10.8048 1.80966 10.6873 1.7205 10.5332L0.853051 9.03033C0.764061 8.87604 0.732696 8.69517 0.764538 8.51992C0.79638 8.34466 0.889363 8.18639 1.02694 8.07326L1.69843 7.52015C1.89373 7.35964 1.9907 7.11017 1.98602 6.85669C1.98498 6.79984 1.98498 6.74298 1.98602 6.68614C1.9907 6.43333 1.89373 6.18453 1.69843 6.02401L1.02694 5.47023C0.889528 5.35713 0.796653 5.19899 0.764816 5.02388C0.732979 4.84878 0.764242 4.66806 0.853051 4.51383L1.7205 3.011C1.80958 2.8566 1.95058 2.73883 2.11839 2.67869C2.2862 2.61855 2.4699 2.61994 2.63678 2.68262L3.45006 2.98759C3.68816 3.07655 3.95234 3.03575 4.1697 2.90466C4.21786 2.87523 4.26735 2.84647 4.31684 2.81905C4.53889 2.69666 4.70609 2.48799 4.74756 2.23785L4.89068 1.3811Z" stroke="black" stroke-width="1.5" stroke-linecap="round" stroke-linejoin="round"/>
</svg>
