<svg width="22" height="22" viewBox="0 0 22 22" fill="none" xmlns="http://www.w3.org/2000/svg">
<path d="M1.28194 5.18411C2.13118 3.51973 3.28953 2.24134 4.75283 1.34475C6.21207 0.448261 7.84859 0 9.65001 0C11.2246 0 12.6056 0.319587 13.7845 0.958784C14.9676 1.59797 15.9115 2.4032 16.6246 3.37863V1.17466C16.6246 0.71805 16.9956 0.344492 17.4491 0.344492H21.1755C21.6289 0.344492 22 0.71805 22 1.17466V20.782C22 21.2386 21.6289 21.6122 21.1755 21.6122H17.4491C16.9956 21.6122 16.6246 21.2386 16.6246 20.782V18.5034C15.9362 19.4994 14.9923 20.3254 13.7845 20.9771C12.5767 21.6287 11.1876 21.9566 9.60871 21.9566C7.82795 21.9566 6.208 21.4959 4.74877 20.5745C3.28536 19.6531 2.13118 18.3539 1.27787 16.677C0.424567 15.0002 0 13.0743 0 10.8994C0 8.72456 0.424567 6.84431 1.27787 5.17993L1.28194 5.18411ZM15.8661 7.62044C15.3592 6.68662 14.6708 5.96858 13.8052 5.47049C12.9394 4.9724 12.012 4.72335 11.0227 4.72335C10.0334 4.72335 9.11823 4.96822 8.27733 5.45391C7.44051 5.93948 6.76032 6.64928 6.23678 7.5831C5.71742 8.51702 5.45356 9.62521 5.45356 10.9036C5.45356 12.182 5.71335 13.3026 6.23678 14.2615C6.75626 15.2202 7.44457 15.9549 8.29381 16.4696C9.14295 16.9801 10.0539 17.2374 11.0185 17.2374C11.9831 17.2374 12.9354 16.9883 13.801 16.4903C14.6666 15.9923 15.3509 15.2742 15.8621 14.3403C16.3691 13.4064 16.6246 12.2858 16.6246 10.9825C16.6246 9.67913 16.3691 8.55853 15.8621 7.62461L15.8661 7.62044Z" fill="white"/>
</svg>
