<svg width="16" height="16" viewBox="0 0 16 16" fill="none" xmlns="http://www.w3.org/2000/svg">
<path fill-rule="evenodd" clip-rule="evenodd" d="M14.4001 8.0001C14.4001 9.69748 13.7258 11.3253 12.5256 12.5256C11.3253 13.7258 9.69748 14.4001 8.0001 14.4001C6.30271 14.4001 4.67485 13.7258 3.47461 12.5256C2.27438 11.3253 1.6001 9.69748 1.6001 8.0001C1.6001 6.30271 2.27438 4.67485 3.47461 3.47461C4.67485 2.27438 6.30271 1.6001 8.0001 1.6001C9.69748 1.6001 11.3253 2.27438 12.5256 3.47461C13.7258 4.67485 14.4001 6.30271 14.4001 8.0001ZM8.8001 4.8001C8.8001 5.01227 8.71581 5.21575 8.56578 5.36578C8.41575 5.51581 8.21227 5.6001 8.0001 5.6001C7.78792 5.6001 7.58444 5.51581 7.43441 5.36578C7.28438 5.21575 7.2001 5.01227 7.2001 4.8001C7.2001 4.58792 7.28438 4.38444 7.43441 4.23441C7.58444 4.08438 7.78792 4.0001 8.0001 4.0001C8.21227 4.0001 8.41575 4.08438 8.56578 4.23441C8.71581 4.38444 8.8001 4.58792 8.8001 4.8001ZM7.2001 7.2001C7.04097 7.2001 6.88836 7.26331 6.77583 7.37583C6.66331 7.48836 6.6001 7.64097 6.6001 7.8001C6.6001 7.95923 6.66331 8.11184 6.77583 8.22436C6.88836 8.33688 7.04097 8.4001 7.2001 8.4001H7.4025C7.43242 8.40011 7.46197 8.40684 7.48895 8.41978C7.51593 8.43273 7.53966 8.45157 7.55839 8.47491C7.57713 8.49825 7.59038 8.52549 7.59718 8.55464C7.60399 8.58378 7.60416 8.61408 7.5977 8.6433L7.2305 10.2961C7.18496 10.5008 7.18599 10.7132 7.23353 10.9174C7.28106 11.1217 7.37388 11.3127 7.50513 11.4762C7.63637 11.6398 7.8027 11.7718 7.9918 11.8625C8.18091 11.9532 8.38798 12.0002 8.5977 12.0001H8.8001C8.95923 12.0001 9.11184 11.9369 9.22436 11.8244C9.33688 11.7118 9.4001 11.5592 9.4001 11.4001C9.4001 11.241 9.33688 11.0884 9.22436 10.9758C9.11184 10.8633 8.95923 10.8001 8.8001 10.8001H8.5977C8.56777 10.8001 8.53823 10.7934 8.51125 10.7804C8.48427 10.7675 8.46054 10.7486 8.4418 10.7253C8.42307 10.7019 8.40981 10.6747 8.40301 10.6456C8.39621 10.6164 8.39603 10.5861 8.4025 10.5569L8.7697 8.9041C8.81524 8.69938 8.8142 8.48705 8.76667 8.28278C8.71913 8.07852 8.62631 7.88754 8.49507 7.72396C8.36382 7.56038 8.1975 7.42838 8.00839 7.33771C7.81928 7.24704 7.61222 7.20001 7.4025 7.2001H7.2001Z" fill="black"/>
</svg>
