<svg width="120" height="21" viewBox="0 0 120 21" fill="none" xmlns="http://www.w3.org/2000/svg">
<g clip-path="url(#clip0_24_5007)">
<path d="M10.45 3.5H7.15C6.54247 3.5 6.05 4.02234 6.05 4.66667V8.16667H10.45C10.5751 8.16373 10.6938 8.22547 10.7681 8.33222C10.8425 8.43897 10.8634 8.57733 10.824 8.70333L10.01 11.27C9.93498 11.5055 9.72741 11.6648 9.493 11.6667H6.05V20.4167C6.05 20.7388 5.80371 21 5.5 21H2.75C2.44625 21 2.2 20.7388 2.2 20.4167V11.6667H0.55C0.246246 11.6667 0 11.4054 0 11.0833V8.75C0 8.42788 0.246246 8.16667 0.55 8.16667H2.2V4.66667C2.2 2.08934 4.16999 0 6.6 0H10.45C10.7537 0 11 0.26117 11 0.583333V2.91667C11 3.23883 10.7537 3.5 10.45 3.5Z" fill="#202020"/>
</g>
<g clip-path="url(#clip1_24_5007)">
<path d="M53.4 1.87439C56.1786 1.87439 56.5047 1.88678 57.603 1.93632C58.6186 1.98174 59.1677 2.15101 59.5351 2.29551C60.0223 2.48543 60.3691 2.70838 60.7325 3.0717C61.0958 3.43501 61.3228 3.78182 61.5086 4.269C61.649 4.63644 61.8224 5.18555 61.8678 6.20119C61.9174 7.2994 61.9298 7.62557 61.9298 10.4041C61.9298 13.1827 61.9174 13.5089 61.8678 14.6071C61.8224 15.6227 61.6531 16.1718 61.5086 16.5393C61.3187 17.0264 61.0958 17.3732 60.7325 17.7366C60.3691 18.0999 60.0223 18.327 59.5351 18.5127C59.1677 18.6531 58.6186 18.8265 57.603 18.8719C56.5047 18.9215 56.1786 18.9339 53.4 18.9339C50.6214 18.9339 50.2953 18.9215 49.1971 18.8719C48.1814 18.8265 47.6323 18.6572 47.2649 18.5127C46.7777 18.3228 46.4309 18.0999 46.0676 17.7366C45.7042 17.3732 45.4772 17.0264 45.2914 16.5393C45.151 16.1718 44.9776 15.6227 44.9322 14.6071C44.8826 13.5089 44.8703 13.1827 44.8703 10.4041C44.8703 7.62557 44.8826 7.2994 44.9322 6.20119C44.9776 5.18555 45.1469 4.63644 45.2914 4.269C45.4813 3.78182 45.7042 3.43501 46.0676 3.0717C46.4309 2.70838 46.7777 2.4813 47.2649 2.29551C47.6323 2.15514 48.1814 1.98174 49.1971 1.93632C50.2953 1.88265 50.6256 1.87439 53.4 1.87439ZM53.4 0C50.576 0 50.221 0.0123859 49.1104 0.0619293C48.0039 0.111473 47.2484 0.289004 46.5878 0.544978C45.9024 0.80921 45.3244 1.1684 44.7464 1.74641C44.1684 2.32441 43.8133 2.90655 43.545 3.58777C43.289 4.24835 43.1115 5.00389 43.0619 6.11449C43.0124 7.22096 43 7.57602 43 10.4C43 13.224 43.0124 13.579 43.0619 14.6896C43.1115 15.7961 43.289 16.5516 43.545 17.2164C43.8092 17.9017 44.1684 18.4797 44.7464 19.0577C45.3244 19.6357 45.9065 19.9908 46.5878 20.2592C47.2484 20.5151 48.0039 20.6927 49.1145 20.7422C50.2251 20.7917 50.576 20.8041 53.4041 20.8041C56.2322 20.8041 56.5832 20.7917 57.6938 20.7422C58.8003 20.6927 59.5558 20.5151 60.2205 20.2592C60.9059 19.9949 61.4839 19.6357 62.0619 19.0577C62.6399 18.4797 62.9949 17.8976 63.2633 17.2164C63.5193 16.5558 63.6968 15.8002 63.7463 14.6896C63.7959 13.579 63.8083 13.2281 63.8083 10.4C63.8083 7.57189 63.7959 7.22096 63.7463 6.11036C63.6968 5.00389 63.5193 4.24835 63.2633 3.58364C62.9991 2.89829 62.6399 2.32029 62.0619 1.74228C61.4839 1.16427 60.9017 0.80921 60.2205 0.54085C59.5599 0.284875 58.8044 0.107344 57.6938 0.0578007C56.5791 0.0123859 56.224 0 53.4 0Z" fill="#202020"/>
<path d="M53.4 5.06158C50.4522 5.06158 48.0576 7.45206 48.0576 10.4041C48.0576 13.356 50.4481 15.7465 53.4 15.7465C56.352 15.7465 58.7425 13.356 58.7425 10.4041C58.7425 7.45206 56.352 5.06158 53.4 5.06158ZM53.4 13.868C51.4844 13.868 49.932 12.3156 49.932 10.3999C49.932 8.48421 51.4844 6.93185 53.4 6.93185C55.3157 6.93185 56.8681 8.48421 56.8681 10.3999C56.8681 12.3156 55.3157 13.868 53.4 13.868Z" fill="#202020"/>
<path d="M58.9529 6.09391C59.6416 6.09391 60.1998 5.53568 60.1998 4.84706C60.1998 4.15845 59.6416 3.60022 58.9529 3.60022C58.2643 3.60022 57.7061 4.15845 57.7061 4.84706C57.7061 5.53568 58.2643 6.09391 58.9529 6.09391Z" fill="#202020"/>
</g>
<g clip-path="url(#clip2_24_5007)">
<path d="M107.577 9.02816C107.059 9.02816 106.637 8.61276 106.637 8.10203C106.637 7.59129 107.059 7.1759 107.577 7.1759C108.094 7.1759 108.516 7.59129 108.516 8.10203C108.516 8.61276 108.101 9.02816 107.577 9.02816Z" fill="#202020"/>
<path d="M100.256 8.48341C100.406 8.83071 100.753 9.06905 101.155 9.06905C101.7 9.06905 102.136 8.64004 102.136 8.10206C102.136 7.56409 101.7 7.13507 101.155 7.13507C100.753 7.13507 100.406 7.37341 100.256 7.72071C100.202 7.83648 100.174 7.96586 100.174 8.10206C100.174 8.23826 100.208 8.36764 100.256 8.48341Z" fill="#202020"/>
<path d="M112.044 8.98718C111.492 8.98718 111.05 8.55817 111.05 8.03381C111.05 7.50946 111.499 7.08044 112.044 7.08044C112.432 7.08044 112.773 7.29836 112.936 7.61161C113.004 7.74099 113.038 7.884 113.038 8.03381C113.038 8.18363 112.997 8.33344 112.936 8.45602C112.773 8.77608 112.432 8.98718 112.044 8.98718Z" fill="#202020"/>
<path fill-rule="evenodd" clip-rule="evenodd" d="M113.431 0H99.5618C97.5988 0 96 1.61948 96 3.5928V12.289C96 14.2691 97.6055 15.8818 99.5618 15.8818H104.459L106.132 18.801C106.281 19.0663 106.658 19.0663 106.814 18.801L108.487 15.8818H113.438C115.401 15.8818 117 14.2623 117 12.289V3.59961C117 1.61948 115.395 0 113.431 0ZM107.577 6.16804C106.494 6.16804 105.616 7.03288 105.616 8.10202C105.616 9.17116 106.494 10.036 107.577 10.036C108.66 10.036 109.538 9.17116 109.538 8.10202C109.538 7.03288 108.666 6.16804 107.577 6.16804ZM100.249 6.61071C100.556 6.33151 100.951 6.16808 101.373 6.16808C102.353 6.16808 103.137 7.03973 103.137 8.10887C103.137 9.17801 102.347 10.0429 101.373 10.0429C100.944 10.0429 100.556 9.87261 100.249 9.60022V9.94752H99.1597V5.01041H100.249V6.61071ZM112.936 6.24964V6.55608C112.63 6.31774 112.248 6.17473 111.84 6.17473C110.839 6.17473 110.028 7.01233 110.028 8.04061C110.028 9.06889 110.839 9.90649 111.84 9.90649C112.255 9.90649 112.636 9.76349 112.936 9.52515V10.0427C112.936 10.0427 112.827 10.5534 112.064 10.5534V11.5136C112.064 11.5136 112.888 11.6089 113.624 10.8735C113.624 10.8735 113.964 10.5126 114.039 10.0359V6.24964H112.936ZM103.259 5.90242V4.915C103.259 4.915 103.981 4.81966 104.621 5.57555C104.621 5.57555 104.914 5.94328 104.982 6.43358V9.94742H103.858V6.46082C103.763 5.97052 103.259 5.90242 103.259 5.90242Z" fill="#202020"/>
</g>
<defs>
<clipPath id="clip0_24_5007">
<rect width="11" height="21" fill="white"/>
</clipPath>
<clipPath id="clip1_24_5007">
<rect width="21" height="21" fill="white" transform="translate(43)"/>
</clipPath>
<clipPath id="clip2_24_5007">
<rect width="21" height="19" fill="white" transform="translate(96)"/>
</clipPath>
</defs>
</svg>
