<svg width="17" height="13" viewBox="0 0 17 13" fill="none" xmlns="http://www.w3.org/2000/svg">
<g clip-path="url(#clip0_33_5385)">
<path d="M16.7108 0V2.23343C15.5166 2.56257 14.621 3.09546 14.024 3.8321C13.4415 4.56874 13.1502 5.61884 13.1502 6.98244H13.1939C13.7036 6.71599 14.4972 6.58277 15.5749 6.58277C16.4632 7.85229 16.9074 9.31773 16.9074 10.9791C16.6889 11.4963 16.303 11.9195 15.7497 12.2486C15.2108 12.5777 14.5191 12.7423 13.6744 12.7423C12.8298 12.7423 11.9342 12.4681 10.9876 11.9195C10.5799 10.2895 10.376 8.56541 10.376 6.74734C10.376 4.92921 10.9366 3.40109 12.058 2.16291C13.1939 0.909047 14.7448 0.188079 16.7108 0ZM6.33483 0V2.23343C5.14067 2.56257 4.24505 3.09546 3.64798 3.8321C3.06546 4.56874 2.77421 5.61884 2.77421 6.98244H2.8179C3.32759 6.71599 4.12127 6.58277 5.19891 6.58277C6.08725 7.85229 6.5314 9.31773 6.5314 10.9791C6.31295 11.4963 5.92705 11.9195 5.37365 12.2486C4.83484 12.5777 4.14311 12.7423 3.29847 12.7423C2.45383 12.7423 1.55822 12.4681 0.611638 11.9195C0.203879 10.2895 0 8.56541 0 6.74734C0 4.92921 0.560669 3.40109 1.682 2.16291C2.8179 0.909047 4.36883 0.188079 6.33483 0Z" fill="#1F2020"/>
</g>
<defs>
<clipPath id="clip0_33_5385">
<rect width="17" height="13" fill="white"/>
</clipPath>
</defs>
</svg>
