<svg width="86" height="92" viewBox="0 0 86 92" fill="none" xmlns="http://www.w3.org/2000/svg">
<path fill-rule="evenodd" clip-rule="evenodd" d="M39.8494 0.58848C6.89369 5.77794 -10.9926 44.739 7.35865 71.3783C16.3839 84.4983 40.1776 94.3183 55.9582 91.4177C58.3102 90.992 58.3923 89.608 56.0676 89.688C44.0612 91.4977 33.6959 86.9732 33.6959 86.9732C56.6418 89.8743 77.4821 75.5566 83.9637 53.2551C92.9887 22.065 70.8906 -4.30826 39.8494 0.58848ZM54.2078 3.46266C56.4504 4.02153 58.8573 5.59167 59.9786 6.92229C61.8656 9.15777 61.8928 6.44326 60.2521 4.71345L59.2401 3.62233C59.2673 3.64894 89.2968 12.511 80.7091 48.9172C77.4 62.9154 68.0465 76.0886 53.2779 81.9966C24.1784 93.6269 -0.0803413 72.0703 5.08865 39.1769C8.53463 17.461 34.9539 -1.43409 54.2078 3.46266Z" fill="#1F2020"/>
</svg>
