<svg width="64" height="21" viewBox="0 0 64 21" fill="none" xmlns="http://www.w3.org/2000/svg">
<path d="M0.890873 9.75292C1.48479 8.64412 2.30693 7.78606 3.35728 7.17601C4.40763 6.56587 5.61196 6.26221 6.96751 6.26221C8.71353 6.26221 10.1598 6.70516 11.3037 7.58831C12.266 8.33213 12.9617 9.33222 13.3906 10.5803C13.5144 10.9369 13.2394 11.3102 12.8682 11.3102H10.1378C9.92334 11.3102 9.72814 11.1821 9.64014 10.9815C9.43117 10.5163 9.13148 10.1402 8.73551 9.85323C8.25162 9.50218 7.65496 9.32389 6.94278 9.32389C5.92542 9.32389 5.11978 9.6972 4.52586 10.4438C3.93194 11.1904 3.63499 12.2518 3.63499 13.6253C3.63499 14.9987 3.93194 16.0351 4.52586 16.7817C5.11978 17.5283 5.92542 17.9016 6.94278 17.9016C8.25711 17.9016 9.15624 17.3584 9.63743 16.2691C9.72536 16.0713 9.92063 15.9432 10.1351 15.9432H12.86C13.2367 15.9432 13.5089 16.3193 13.3824 16.6786C12.9507 17.8849 12.255 18.8683 11.2899 19.6289C10.1378 20.5398 8.69704 20.9939 6.96751 20.9939C5.61196 20.9939 4.40763 20.6903 3.35728 20.0802C2.30693 19.4701 1.48479 18.612 0.890873 17.5032C0.296958 16.3944 0 15.1018 0 13.6253C0 12.1488 0.296958 10.8561 0.890873 9.74732V9.75292Z" fill="#202020"/>
<path d="M16.1593 9.74179C16.7258 8.62466 17.4984 7.7666 18.4745 7.16481C19.4479 6.56308 20.5395 6.26221 21.7411 6.26221C22.7914 6.26221 23.7125 6.47671 24.4989 6.90574C25.2881 7.33477 25.9177 7.87524 26.3934 8.52995V7.05064C26.3934 6.74416 26.6408 6.49343 26.9433 6.49343H29.4289C29.7314 6.49343 29.9789 6.74416 29.9789 7.05064V20.2111C29.9789 20.5176 29.7314 20.7683 29.4289 20.7683H26.9433C26.6408 20.7683 26.3934 20.5176 26.3934 20.2111V18.6817C25.9342 19.3503 25.3045 19.9047 24.4989 20.3421C23.6933 20.7795 22.7667 20.9995 21.7135 20.9995C20.5257 20.9995 19.4451 20.6903 18.4718 20.0718C17.4956 19.4534 16.7258 18.5814 16.1566 17.4559C15.5874 16.3304 15.3042 15.0377 15.3042 13.5779C15.3042 12.1181 15.5874 10.8561 16.1566 9.73899L16.1593 9.74179ZM25.8874 11.3771C25.5493 10.7503 25.0901 10.2683 24.5127 9.93401C23.9352 9.59969 23.3166 9.43253 22.6567 9.43253C21.9968 9.43253 21.3864 9.59689 20.8255 9.92288C20.2673 10.2488 19.8136 10.7252 19.4643 11.352C19.1179 11.9788 18.9419 12.7227 18.9419 13.5807C18.9419 14.4388 19.1152 15.1909 19.4643 15.8345C19.8108 16.478 20.27 16.9712 20.8364 17.3166C21.4028 17.6593 22.0105 17.832 22.6539 17.832C23.2973 17.832 23.9325 17.6648 24.5099 17.3306C25.0873 16.9962 25.5438 16.5143 25.8847 15.8874C26.2229 15.2606 26.3934 14.5084 26.3934 13.6336C26.3934 12.7589 26.2229 12.0067 25.8847 11.3799L25.8874 11.3771Z" fill="#202020"/>
<path d="M55.1433 7.89689C56.2019 8.96943 56.7326 10.4683 56.7326 12.3933V20.2104C56.7326 20.5169 56.4851 20.7676 56.1826 20.7676H53.7218C53.4193 20.7676 53.1718 20.5169 53.1718 20.2104V12.8836C53.1718 11.7665 52.8913 10.9112 52.3332 10.3206C51.7723 9.72718 51.0107 9.43192 50.0455 9.43192C49.0804 9.43192 48.3133 9.72718 47.7441 10.3206C47.1749 10.914 46.8917 11.7692 46.8917 12.8836V20.2104C46.8917 20.5169 46.6443 20.7676 46.3418 20.7676H43.8809C43.5784 20.7676 43.3309 20.5169 43.3309 20.2104V12.8836C43.3309 11.7665 43.0505 10.9112 42.4923 10.3206C41.9314 9.72718 41.1697 9.43192 40.2047 9.43192C39.2395 9.43192 38.4449 9.72718 37.8785 10.3206C37.3093 10.914 37.0261 11.7692 37.0261 12.8836V20.2104C37.0261 20.5169 36.7787 20.7676 36.4762 20.7676H34.0152C33.7128 20.7676 33.4653 20.5169 33.4653 20.2104V7.04996C33.4653 6.7435 33.7128 6.49278 34.0152 6.49278H36.4762C36.7787 6.49278 37.0261 6.7435 37.0261 7.04996V8.22001C37.4853 7.61829 38.0737 7.14747 38.7941 6.80201C39.5145 6.45935 40.3064 6.28662 41.1725 6.28662C42.2751 6.28662 43.2567 6.52342 44.1229 6.99424C44.9862 7.46786 45.6571 8.14203 46.1328 9.01682C46.5892 8.19215 47.2547 7.53191 48.1291 7.03323C49.0006 6.53457 49.9465 6.28662 50.9639 6.28662C52.6934 6.28662 54.0875 6.8243 55.146 7.89689H55.1433Z" fill="#202020"/>
<path d="M63.6755 7.01081V20.2103C63.6755 20.5168 63.4281 20.7675 63.1256 20.7675H60.6647C60.3623 20.7675 60.1147 20.5168 60.1147 20.2103V7.01081C60.1147 6.70435 60.3623 6.45361 60.6647 6.45361H63.1256C63.4281 6.45361 63.6755 6.70435 63.6755 7.01081Z" fill="#202020"/>
<path d="M63.8391 1.74307L62.2798 0.163194C62.065 -0.0543978 61.7169 -0.0543978 61.5021 0.163194L59.9428 1.74307C59.7281 1.96066 59.7281 2.31345 59.9428 2.53104L61.5021 4.11091C61.7169 4.3285 62.065 4.3285 62.2798 4.11091L63.8391 2.53104C64.0538 2.31345 64.0538 1.96066 63.8391 1.74307Z" fill="#202020"/>
</svg>
