<svg width="17" height="13" viewBox="0 0 17 13" fill="none" xmlns="http://www.w3.org/2000/svg">
<path d="M16.8023 0V2.24566C15.6016 2.57661 14.7011 3.11242 14.1008 3.85309C13.5151 4.59376 13.2222 5.64961 13.2222 7.02068H13.2661C13.7786 6.75277 14.5766 6.61882 15.6602 6.61882C16.5534 7.89529 17 9.36875 17 11.0392C16.7803 11.5593 16.3923 11.9848 15.8359 12.3157C15.2941 12.6466 14.5986 12.8121 13.7493 12.8121C12.9001 12.8121 11.9995 12.5363 11.0478 11.9848C10.6378 10.3458 10.4328 8.61232 10.4328 6.78429C10.4328 4.95621 10.9965 3.41971 12.124 2.17475C13.2661 0.914025 14.8256 0.189109 16.8023 0ZM6.36952 0V2.24566C5.16882 2.57661 4.26829 3.11242 3.66795 3.85309C3.08225 4.59376 2.7894 5.64961 2.7894 7.02068H2.83333C3.34582 6.75277 4.14383 6.61882 5.22738 6.61882C6.12059 7.89529 6.56717 9.36875 6.56717 11.0392C6.34752 11.5593 5.95951 11.9848 5.40308 12.3157C4.86132 12.6466 4.1658 12.8121 3.31653 12.8121C2.46727 12.8121 1.56675 12.5363 0.614987 11.9848C0.204995 10.3458 0 8.61232 0 6.78429C0 4.95621 0.563739 3.41971 1.69121 2.17475C2.83333 0.914025 4.39276 0.189109 6.36952 0Z" fill="#1F2020"/>
</svg>
